<svg width="387" height="239" viewBox="0 0 387 239" fill="none" xmlns="http://www.w3.org/2000/svg">
<g clip-path="url(#clip0)">
<path d="M179.881 58.181C179.943 57.6701 177.451 57.2339 181.271 56.9348C182.774 56.8351 184.252 56.7603 185.692 56.7104C187.111 56.6293 188.533 56.6293 189.951 56.7104C192.744 56.86 195.45 57.0719 198.155 57.2713C200.861 57.4707 203.554 57.9816 206.322 58.2683L208.414 58.4801L210.543 58.7668C211.971 58.9537 213.424 59.1157 214.927 59.2404L215.904 58.5425C217.056 58.7543 218.221 58.8914 219.373 59.1656L222.855 59.9383C225.185 60.4866 227.552 60.9228 229.895 61.5709C234.579 62.8172 239.351 64.0634 244.073 65.7459C252.94 68.2059 261.673 71.1177 270.239 74.4698L276.615 77.1618C278.744 78.0591 280.898 78.9066 282.977 79.9161C287.161 81.8976 291.407 83.6549 295.503 85.8982C295.215 85.4121 295.127 85.0632 296.818 85.8234C298.509 86.5836 300.438 87.643 302.442 88.7023C304.446 89.7616 306.513 91.0328 308.705 92.2916C310.897 93.5503 313.164 94.8589 315.443 96.317L322.42 100.716C323.848 101.551 325.288 102.349 326.654 103.209C327.209 103.561 327.864 103.723 328.52 103.67C332.716 106.499 336.486 108.942 339.793 111.459L344.127 114.288L345.204 114.999L345.479 115.173L345.605 115.26L345.717 115.323L346.193 115.56C346.782 115.859 347.446 116.22 348.16 116.619L348.711 116.93L348.999 117.092L349.137 117.18L349.049 117.267L348.335 117.952C347.809 118.426 347.221 118.974 346.557 119.548L346.269 119.784L346.081 119.934L345.542 120.308L343.375 121.816L339.054 124.844C336.173 126.901 333.23 128.832 330.286 130.789C324.424 134.79 318.399 138.528 312.35 142.354C300.038 149.923 287.345 156.861 274.322 163.142C260.931 169.612 247.022 174.961 232.738 179.132C229.669 180.029 226.613 181.014 223.519 181.849L214.225 184.092L204.931 185.849C201.825 186.348 198.669 186.61 195.638 186.971C185.664 187.728 175.64 187.54 165.702 186.41C155.876 185.323 146.149 183.49 136.605 180.927C137.094 181.774 134.776 181.899 131.144 181.525C129.34 181.276 127.211 180.927 124.881 180.515L121.374 179.88C120.122 179.655 119.007 179.344 117.829 179.082L111.053 177.537C108.949 177.101 107.12 176.577 105.667 176.29C102.774 175.755 101.471 175.917 103.275 177.425L98.7908 175.593C97.2376 174.944 95.6845 174.184 94.0938 173.474L89.3842 171.355L87.1922 170.358L85.0253 169.311C79.4014 166.582 75.005 164.588 74.3912 164.663C72.575 165.062 69.2433 164.762 62.6298 162.507C59.3857 161.26 55.3275 159.578 50.2672 157.185C45.2069 154.792 39.2323 151.552 32.2306 147.215C26.7319 143.862 20.2061 139.014 14.4695 134.839C8.73283 130.664 4.02326 126.901 2.01919 125.766C-4.14333 122.19 14.4194 136.946 8.28191 133.406C13.0165 137.008 17.939 140.41 22.7864 143.862C25.1913 145.607 27.7089 147.227 30.1764 148.847C32.6439 150.468 35.1114 152.188 37.6165 153.833L45.1318 158.618C46.3843 159.403 47.6369 160.226 48.8894 160.986L52.7848 163.317L60.5256 167.853L68.4166 172.153C79.0096 177.884 89.9342 182.986 101.133 187.432C112.434 191.992 124.071 195.68 135.941 198.462C147.944 201.251 160.162 203.027 172.465 203.771C184.835 204.37 197.233 203.883 209.516 202.313L214.113 201.69C215.641 201.49 217.181 201.291 218.697 200.967L227.79 199.247C233.79 197.839 239.827 196.493 245.689 194.661L250.136 193.414C251.614 192.991 253.042 192.455 254.507 191.981C257.413 190.984 260.344 190.024 263.275 188.99C268.999 186.784 274.773 184.653 280.36 182.148C282.226 181.226 284.869 180.129 287.963 178.546C291.056 176.963 294.827 175.194 298.998 173.05C307.314 168.676 317.598 163.192 328.808 156.363C334.495 153.035 340.319 149.259 346.444 145.395C349.488 143.439 352.544 141.37 355.688 139.301L358.043 137.743C359.383 136.858 360.886 135.861 362.339 134.852L371.107 128.782L380 122.651L384.484 119.56L386.738 118.002C386.914 118.002 386.676 117.865 386.626 117.803L386.35 117.603L385.786 117.192L384.672 116.382L366.685 103.122L362.163 99.7567C361.412 99.1959 360.648 98.685 359.884 98.1615L358.017 96.9152L352.945 93.4007C349.588 91.0079 346.068 88.7895 342.574 86.4964C328.576 77.3269 314.037 69.0034 299.035 61.5709C284.777 54.5637 269.979 48.7 254.783 44.0358C251.163 43.0263 247.643 41.967 244.161 41.0572L233.915 38.6893L224.12 36.8822C222.542 36.5706 220.977 36.3712 219.436 36.1718L214.952 35.5487C213.474 35.3618 212.021 35.1499 210.593 35.0003L206.409 34.6638C203.679 34.4644 201.086 34.1903 198.631 34.0906L191.692 33.8911L188.561 33.8039C187.559 33.8039 186.607 33.8039 185.68 33.8039L180.331 33.9908C163.376 34.601 146.555 37.2328 130.23 41.8299C115.244 46.0465 100.694 51.6718 86.7789 58.6297C84.0734 60.0131 81.418 61.5335 78.7376 63.0041L74.6668 65.1851L70.7338 67.553L62.9304 72.3387L55.2523 77.3238L62.6925 73.9589C65.0598 72.8871 67.377 72.0271 69.4812 71.1672C63.9325 73.9215 58.5966 77.0247 54.0624 79.6045C50.6357 81.5831 47.3121 83.7336 44.1047 86.0477C41.3616 87.8424 39.2448 89.4127 37.5789 90.6714C35.913 91.9301 34.7231 92.9022 33.9215 93.6126C32.3182 95.0583 32.2681 95.507 33.195 95.3699C35.0488 95.1081 40.7103 92.3913 45.4574 90.634C52.0458 87.6679 44.4554 93.7871 54.4758 88.7521L45.8583 93.8993C43.278 95.482 40.7353 97.1396 37.3159 99.2956C37.1656 99.9188 42.3261 96.3918 47.0732 93.4132C51.8204 90.4346 56.2043 87.8922 54.1501 89.9112C50.7557 91.8055 47.2235 93.8993 43.779 96.2049C40.3345 98.5105 36.865 100.866 33.4831 103.047C34.9486 102.735 40.8731 99.0464 46.3718 95.6565C51.8705 92.2666 57.0936 89.4251 56.8431 90.2103C55.0645 91.4566 50.0292 93.9491 45.3948 96.5912C40.7604 99.2333 36.627 101.863 36.3139 102.823C36.2137 103.209 42.9899 98.9093 46.3342 96.7532C41.2113 100.205 36.6395 103.221 33.1199 105.876C29.6002 108.531 26.9949 110.587 25.6046 111.846C22.8866 114.338 25.1537 113.678 34.8484 107.97C31.6168 110.151 27.6212 112.643 23.6381 115.26C19.655 117.878 15.7095 120.669 12.3652 123.149L24.9282 114.712L13.4549 122.813C14.1689 122.539 14.958 122.202 15.7847 121.841C18.7281 119.934 21.6591 118.002 24.6401 115.896L17.0497 121.28C19.2041 120.283 21.634 119.074 24.2519 117.691C29.0115 114.862 33.8088 112.332 38.0299 110.001C42.2509 107.671 45.8583 105.839 48.3633 104.243C58.6092 98.012 68.9552 92.0797 79.6143 86.7955L83.5348 84.8015C84.8625 84.1285 86.2278 83.5552 87.568 82.9071L95.6219 79.1683L103.788 75.741L105.83 74.8811L107.897 74.1084L112.03 72.5755C122.957 68.4318 134.177 65.0992 145.598 62.6053C156.886 60.2058 168.351 58.7261 179.881 58.181V58.181Z" fill="#fff6e0"/>
<path d="M212.873 115.784C213.386 115.784 213.862 115.186 214.125 116.021C214.293 116.66 214.319 117.327 214.2 117.977C214.075 118.6 213.887 119.224 213.724 119.784C213.561 120.345 213.248 120.943 213.098 121.529C212.942 122.139 212.833 122.76 212.772 123.386L213.511 123.76L212.86 125.206C212.61 125.679 212.296 126.14 212.033 126.601C211.477 127.529 210.862 128.419 210.192 129.269C208.445 132.832 205.956 135.984 202.89 138.516C203.153 138.703 203.353 138.89 203.09 139.214C202.937 139.377 202.773 139.531 202.602 139.675L201.988 140.061L200.61 140.846C200.122 141.121 199.558 141.283 199.019 141.519C198.499 141.758 197.964 141.962 197.416 142.13L196.452 142.629C196.305 142.844 196.247 143.107 196.289 143.364C195.306 143.639 194.306 143.847 193.295 143.987C187.062 146.114 180.286 146.071 174.081 143.862C166.926 141.295 160.967 136.204 157.335 129.555C155.283 126.69 153.893 123.409 153.264 119.946C153.189 119.311 153.126 118.7 153.076 117.977C153.033 117.284 153.033 116.589 153.076 115.896C153.076 115.198 153.076 114.475 153.239 113.765L153.64 111.634C153.715 111.272 153.765 110.923 153.853 110.574L154.166 109.54L154.78 107.521C155.306 106.275 155.769 105.028 156.295 103.882C155.544 103.757 155.243 102.96 155.168 101.763C155.126 101.094 155.151 100.421 155.243 99.7567C155.356 99.0464 155.506 98.2861 155.644 97.5259L155.869 96.3793L156.132 95.3325C156.29 94.7272 156.399 94.1104 156.458 93.488C156.533 92.4037 156.283 91.6933 155.268 91.818C155.882 91.0328 156.696 90.2601 157.447 89.4127C158.199 88.5652 159.038 87.805 159.765 87.107C161.193 85.6364 162.408 84.6145 162.27 84.1783C162.057 83.4498 162.014 82.6825 162.145 81.935C162.214 81.4445 162.34 80.9635 162.52 80.5018C162.753 79.9487 163.039 79.4187 163.372 78.919C164.294 77.4657 165.459 76.18 166.817 75.1179C168.873 73.4522 171.165 72.0959 173.618 71.0924C174.77 70.7061 176.123 70.3571 177.526 70.0456C178.929 69.734 180.394 69.7091 181.734 69.5844C183.694 69.6048 185.653 69.4882 187.596 69.2355C188.122 69.0485 188.085 68.8367 187.747 68.6248C187.1 68.3719 186.428 68.1881 185.742 68.0764C184.102 67.715 182.411 67.391 183.788 66.9174C182.597 66.9451 181.408 67.0533 180.231 67.2414C179.054 67.4034 177.851 67.5156 176.687 67.7773C174.346 68.2472 172.043 68.8888 169.798 69.6966C167.552 70.4899 165.363 71.4351 163.247 72.5256C162.207 73.0989 161.205 73.7719 160.178 74.3203C159.677 74.6318 159.163 74.9309 158.675 75.2674L157.235 76.3143C149.541 81.8868 143.592 89.5134 140.075 98.311L138.822 101.626C138.409 102.735 138.196 103.894 137.895 105.028C137.315 107.31 136.896 109.63 136.643 111.97C136.225 116.631 136.444 121.326 137.294 125.928L137.582 127.673L138.02 129.381C138.334 130.527 138.622 131.674 138.972 132.795C139.726 135.041 140.625 137.234 141.665 139.363C142.693 141.518 143.869 143.6 145.185 145.595C145.849 146.579 146.588 147.514 147.302 148.474C147.665 148.947 148.016 149.421 148.392 149.882L149.644 151.215C150.258 151.764 151.034 152.549 152.049 153.446C153.064 154.344 154.316 155.365 155.807 156.487L158.199 158.145L159.452 159.03L160.867 159.865C161.844 160.413 162.846 160.999 163.911 161.559L167.318 163.105C172.55 165.26 178.101 166.552 183.751 166.931C193.161 167.571 202.562 165.548 210.865 161.095C219.168 156.642 226.035 149.942 230.671 141.769C233.163 137.317 234.998 132.532 236.12 127.561C236.32 126.477 236.496 125.418 236.658 124.408C236.836 123.46 236.957 122.503 237.022 121.542C237.122 119.722 237.322 118.102 237.272 116.743L237.147 114.749C236.877 108.398 235.245 102.177 232.362 96.504C229.733 91.2797 226.004 86.6804 221.427 83.0193C217.69 80.4084 213.577 78.3748 209.228 76.9873C210.029 77.6478 210.731 78.4081 211.395 79.0686C212.012 79.6963 212.59 80.3623 213.123 81.0626C209.591 78.5701 205.608 76.6508 203.879 76.601C202.442 76.136 200.927 75.9581 199.42 76.0775C198.619 76.2271 198.443 76.5511 198.619 76.9748C198.958 77.577 199.398 78.1166 199.921 78.5701C200.522 79.2431 201.174 79.9784 201.775 80.7137C202.677 81.4988 202.276 81.9599 202.038 82.4211C201.8 82.8822 201.725 83.4056 203.015 84.5397C202.145 84.0585 201.241 83.642 200.31 83.2934C199.399 82.9071 198.461 82.5864 197.504 82.3338C197.391 82.5083 197.779 82.6828 198.393 82.8573C199.007 83.0317 199.809 83.3682 200.585 83.6175C200.973 83.7546 201.349 83.8792 201.687 84.0163C201.965 84.1384 202.23 84.2887 202.476 84.4649C202.865 84.7391 202.927 84.9635 202.476 85.1005C200.573 83.8543 198.03 83.5302 195.813 82.9819C196.063 83.6549 197.967 84.1035 199.571 84.9011C201.174 85.6988 202.677 86.459 202.289 86.8453C201.834 86.6691 201.411 86.4208 201.036 86.11L199.17 85.0258C197.917 84.2406 196.514 83.9166 196.151 84.4899C196.013 84.7267 198.13 85.275 199.132 85.7361C197.737 85.3041 196.294 85.0446 194.836 84.9635C193.945 84.8923 193.048 84.9896 192.193 85.2501C191.153 85.6738 191.73 86.4091 194.31 87.6305C193.383 87.3688 192.243 87.132 191.078 86.7955C189.949 86.5673 188.799 86.4546 187.646 86.459C187.646 86.459 187.646 86.459 187.646 86.459C188.16 86.459 188.899 86.6335 189.55 86.7456C190.202 86.8578 190.915 86.9326 191.379 87.0572C190.227 86.8453 189.049 86.8703 187.884 86.7456C188.076 86.945 188.277 87.1444 188.486 87.3438C189.312 87.5481 190.148 87.7103 190.991 87.8299C190.252 87.6928 189.488 87.7053 188.736 87.6305C189.309 88.1188 189.912 88.5724 190.54 88.9889C193.045 90.2352 194.911 91.9675 196.088 92.4411C200.856 94.3877 204.967 97.6476 207.938 101.838C210.834 105.913 212.526 110.714 212.822 115.697L212.873 115.784Z" fill="#fff6e0"/>
<path d="M257.538 49.0084C257.814 49.4322 259.091 49.0957 257.739 50.4292C253.355 54.4422 248.545 56.0249 244.161 60.038C244.161 60.3371 244.274 60.6362 244.324 60.9477C240.479 63.4403 236.42 66.0575 232.337 68.7369C225.306 74.3452 218.359 79.9825 211.495 85.6489C211.858 85.7486 212.121 85.8857 211.495 86.5213C208.702 89.0138 204.48 91.8803 200.222 95.0707L198.456 96.6161C198.335 96.7573 198.248 96.9235 198.201 97.1024C198.153 97.2813 198.146 97.4685 198.18 97.6505C196.264 99.0962 194.523 100.342 192.907 101.489C173.28 118.75 153.514 136.472 131.983 155.527C127.649 159.84 123.303 164.164 118.894 167.99C112.243 173.549 103.175 179.905 96.4359 185.014C99.2416 186.485 83.8353 200.231 88.9207 199.97C84.4365 203.372 77.6478 208.482 77.8482 209.391C78.3241 212.121 76.5956 216.994 65.7235 227.325C61.302 231.176 53.5738 235.887 52.2461 237.545C50.1544 240.15 59.298 234.242 57.2563 236.847C92.1773 210.875 124.643 184.354 159.276 157.522C170.273 147.364 249.459 85.2376 270.176 69.8711L272.005 68.4129C283.278 59.8884 296.63 49.2203 305.385 40.9949C309.293 37.119 313.176 33.0561 317.059 29.0306C314.729 30.2769 312.563 31.3238 310.634 32.2211C315.13 28.8188 319.614 25.4164 321.005 23.6717C329.772 15.3466 323.51 18.3875 318.612 19.6711C315.468 21.0296 318.199 17.1786 313.602 19.7459L321.117 14.0629C320.955 13.1656 312.224 21.5405 313.464 18.8361C316.508 16.867 319.401 13.9881 322.395 11.7199C320.679 11.7199 311.861 19.372 311.648 18.1631C313.089 16.7175 320.892 12.854 320.629 11.346C320.629 11.0469 317.585 13.3151 316.082 14.4492C324.963 6.97158 329.196 2.11111 319.953 7.42024C322.871 5.20187 327.317 2.43515 330.261 -0.0574036C328.708 1.08917 325.902 2.92119 324.474 3.99299L329.735 0.00491016C329.347 0.0672239 328.921 0.166926 328.482 0.266628C327.08 1.15148 325.689 2.0488 324.324 3.08321L327.543 0.553271C326.27 0.903787 325.015 1.31977 323.785 1.79955C319.126 4.29209 314.391 6.34845 312.149 8.03092C293.862 21.5156 275.487 35.1623 257.538 49.0084Z" fill="#fff6e0"/>
</g>
<defs>
<clipPath id="clip0">
<rect width="386.009" height="238.213" fill="white" transform="translate(0.766602 0.0547791)"/>
</clipPath>
</defs>
</svg>
