<svg width="262" height="146" viewBox="0 0 262 146" fill="none" xmlns="http://www.w3.org/2000/svg">
<rect y="58" width="30" height="30" fill="white"/>
<rect x="0.5" y="58.5" width="29" height="29" stroke="#fff6e0" stroke-opacity="0.15"/>
<rect x="232" y="58" width="30" height="30" fill="white"/>
<rect x="232.5" y="58.5" width="29" height="29" stroke="#fff6e0" stroke-opacity="0.15"/>
<rect x="87" y="15" width="30" height="30" fill="white"/>
<rect x="87.5" y="15.5" width="29" height="29" stroke="#fff6e0" stroke-opacity="0.15"/>
<rect x="145" y="15" width="30" height="30" fill="white"/>
<rect x="145.5" y="15.5" width="29" height="29" stroke="#fff6e0" stroke-opacity="0.15"/>
<rect x="87" y="102" width="30" height="30" fill="white"/>
<rect x="87.5" y="102.5" width="29" height="29" stroke="#fff6e0" stroke-opacity="0.15"/>
<rect x="145" y="102" width="30" height="30" fill="white"/>
<rect x="145.5" y="102.5" width="29" height="29" stroke="#fff6e0" stroke-opacity="0.15"/>
<rect x="58" y="58" width="30" height="30" fill="white"/>
<rect x="58.5" y="58.5" width="29" height="29" stroke="#fff6e0" stroke-opacity="0.15"/>
<rect x="174" y="58" width="30" height="30" fill="white"/>
<rect x="174.5" y="58.5" width="29" height="29" stroke="#fff6e0" stroke-opacity="0.15"/>
<rect x="116" y="58" width="30" height="30" fill="white"/>
<rect x="116.5" y="58.5" width="29" height="29" stroke="#fff6e0" stroke-opacity="0.15"/>
<rect x="58" y="29" width="30" height="30" fill="white"/>
<rect x="58.5" y="29.5" width="29" height="29" stroke="#fff6e0" stroke-opacity="0.15"/>
<rect x="174" y="29" width="30" height="30" fill="white"/>
<rect x="174.5" y="29.5" width="29" height="29" stroke="#fff6e0" stroke-opacity="0.15"/>
<rect x="116" y="29" width="30" height="30" fill="white"/>
<rect x="116.5" y="29.5" width="29" height="29" stroke="#fff6e0" stroke-opacity="0.15"/>
<rect x="58" y="87" width="30" height="30" fill="white"/>
<rect x="58.5" y="87.5" width="29" height="29" stroke="#fff6e0" stroke-opacity="0.15"/>
<rect x="174" y="87" width="30" height="30" fill="white"/>
<rect x="174.5" y="87.5" width="29" height="29" stroke="#fff6e0" stroke-opacity="0.15"/>
<rect x="116" y="87" width="30" height="30" fill="white"/>
<rect x="116.5" y="87.5" width="29" height="29" stroke="#fff6e0" stroke-opacity="0.15"/>
<rect x="29" y="73" width="30" height="30" fill="white"/>
<rect x="29.5" y="73.5" width="29" height="29" stroke="#fff6e0" stroke-opacity="0.15"/>
<rect x="203" y="73" width="30" height="30" fill="white"/>
<rect x="203.5" y="73.5" width="29" height="29" stroke="#fff6e0" stroke-opacity="0.15"/>
<rect x="116" y="116" width="30" height="30" fill="white"/>
<rect x="116.5" y="116.5" width="29" height="29" stroke="#fff6e0" stroke-opacity="0.15"/>
<rect x="87" y="73" width="30" height="30" fill="white"/>
<rect x="87.5" y="73.5" width="29" height="29" stroke="#fff6e0" stroke-opacity="0.15"/>
<rect x="145" y="73" width="30" height="30" fill="white"/>
<rect x="145.5" y="73.5" width="29" height="29" stroke="#fff6e0" stroke-opacity="0.15"/>
<rect x="29" y="44" width="30" height="30" fill="white"/>
<rect x="29.5" y="44.5" width="29" height="29" stroke="#fff6e0" stroke-opacity="0.15"/>
<rect x="203" y="44" width="30" height="30" fill="white"/>
<rect x="203.5" y="44.5" width="29" height="29" stroke="#fff6e0" stroke-opacity="0.15"/>
<rect x="116" width="30" height="30" fill="white"/>
<rect x="116.5" y="0.5" width="29" height="29" stroke="#fff6e0" stroke-opacity="0.15"/>
<rect x="87" y="44" width="30" height="30" fill="white"/>
<rect x="87.5" y="44.5" width="29" height="29" stroke="#fff6e0" stroke-opacity="0.15"/>
<rect x="145" y="44" width="30" height="30" fill="white"/>
<rect x="145.5" y="44.5" width="29" height="29" stroke="#fff6e0" stroke-opacity="0.15"/>
</svg>
