<svg width="342" height="349" viewBox="0 0 342 349" fill="none" xmlns="http://www.w3.org/2000/svg">
<path d="M331.721 174.961C331.721 183.119 327.474 191.054 319.439 198.439C311.402 205.825 299.69 212.545 285.092 218.22C255.904 229.566 215.479 236.616 170.752 236.616C126.025 236.616 85.6006 229.566 56.4128 218.22C41.8141 212.545 30.1023 205.825 22.0659 198.439C14.0307 191.054 9.78323 183.119 9.78323 174.961C9.78323 166.802 14.0307 158.867 22.0659 151.482C30.1023 144.096 41.8141 137.376 56.4128 131.701C85.6006 120.355 126.025 113.305 170.752 113.305C215.479 113.305 255.904 120.355 285.092 131.701C299.69 137.376 311.402 144.096 319.439 151.482C327.474 158.867 331.721 166.802 331.721 174.961Z" stroke="#fff6e0" stroke-opacity="0.1" stroke-width="3"/>
<path d="M305.839 262.821C301.383 269.664 293.485 274 282.71 275.804C271.934 277.609 258.438 276.848 243.091 273.633C212.407 267.205 174.642 251.034 137.119 226.6C99.5961 202.166 69.5329 174.17 51.2429 148.708C42.095 135.973 35.94 123.938 33.2319 113.352C30.5241 102.768 31.2951 93.7916 35.7511 86.9484C40.2072 80.1053 48.1051 75.7693 58.8798 73.9647C69.6561 72.1598 83.1522 72.921 98.4992 76.1362C129.183 82.5646 166.947 98.7349 204.471 123.169C241.994 147.603 272.057 175.599 290.347 201.061C299.495 213.796 305.65 225.831 308.358 236.417C311.066 247.001 310.295 255.978 305.839 262.821Z" stroke="#fff6e0" stroke-opacity="0.1" stroke-width="3"/>
<path d="M228.068 325.039C220.44 327.953 211.502 326.816 201.726 321.939C191.949 317.062 181.48 308.509 170.959 296.884C149.922 273.64 128.887 238.353 112.907 196.524C96.9268 154.696 89.0756 114.372 89.2561 83.0226C89.3463 67.3427 91.4456 53.9891 95.4803 43.8349C99.5144 33.6823 105.417 26.8751 113.045 23.9608C120.674 21.0465 129.612 22.1841 139.387 27.0609C149.165 31.9384 159.633 40.4908 170.155 52.1164C191.192 75.3601 212.226 110.647 228.206 152.476C244.187 194.304 252.038 234.628 251.857 265.977C251.767 281.657 249.668 295.011 245.633 305.165C241.599 315.318 235.696 322.125 228.068 325.039Z" stroke="#fff6e0" stroke-opacity="0.1" stroke-width="3"/>
<path d="M131.943 330.399C124.019 328.427 117.337 322.383 112.106 312.792C106.875 303.199 103.178 290.197 101.194 274.643C97.2285 243.545 100.152 202.568 110.962 159.115C121.773 115.663 138.392 78.0935 156.467 52.479C165.508 39.6676 174.866 29.9134 183.983 23.8907C193.098 17.8688 201.833 15.66 209.758 17.6316C217.682 19.6031 224.364 25.6475 229.595 35.2386C234.826 44.8311 238.523 57.8333 240.507 73.3875C244.472 104.486 241.549 145.462 230.738 188.915C219.928 232.368 203.309 269.937 185.234 295.551C176.193 308.363 166.834 318.117 157.718 324.14C148.603 330.161 139.868 332.37 131.943 330.399Z" stroke="#fff6e0" stroke-opacity="0.1" stroke-width="3"/>
</svg>
