<svg width="345" height="345" viewBox="0 0 345 345" fill="none" xmlns="http://www.w3.org/2000/svg">
<circle cx="3.94608" cy="3.94608" r="3.94608" fill="#fff6e0" fill-opacity="0.1"/>
<ellipse cx="3.94608" cy="31.5686" rx="3.94608" ry="3.38235" fill="#fff6e0" fill-opacity="0.1"/>
<circle cx="3.94608" cy="60.3186" r="3.94608" fill="#fff6e0" fill-opacity="0.1"/>
<circle cx="3.94608" cy="87.3774" r="3.94608" fill="#fff6e0" fill-opacity="0.1"/>
<circle cx="3.94608" cy="116.691" r="3.94608" fill="#fff6e0" fill-opacity="0.1"/>
<circle cx="3.94608" cy="143.75" r="3.94608" fill="#fff6e0" fill-opacity="0.1"/>
<ellipse cx="3.94608" cy="172.5" rx="3.94608" ry="3.38235" fill="#fff6e0" fill-opacity="0.1"/>
<circle cx="3.94608" cy="200.123" r="3.94608" fill="#fff6e0" fill-opacity="0.1"/>
<circle cx="3.94608" cy="228.309" r="3.94608" fill="#fff6e0" fill-opacity="0.1"/>
<circle cx="3.94608" cy="256.495" r="3.94608" fill="#fff6e0" fill-opacity="0.1"/>
<circle cx="3.94608" cy="284.681" r="3.94608" fill="#fff6e0" fill-opacity="0.1"/>
<circle cx="3.94608" cy="312.868" r="3.94608" fill="#fff6e0" fill-opacity="0.1"/>
<circle cx="3.94608" cy="341.054" r="3.94608" fill="#fff6e0" fill-opacity="0.1"/>
<ellipse cx="31.5686" cy="3.94608" rx="3.38235" ry="3.94608" fill="#fff6e0" fill-opacity="0.1"/>
<circle cx="31.5686" cy="31.5686" r="3.38235" fill="#fff6e0" fill-opacity="0.1"/>
<ellipse cx="31.5686" cy="60.3186" rx="3.38235" ry="3.94608" fill="#fff6e0" fill-opacity="0.1"/>
<ellipse cx="31.5686" cy="87.3774" rx="3.38235" ry="3.94608" fill="#fff6e0" fill-opacity="0.1"/>
<ellipse cx="31.5686" cy="116.691" rx="3.38235" ry="3.94608" fill="#fff6e0" fill-opacity="0.1"/>
<ellipse cx="31.5686" cy="143.75" rx="3.38235" ry="3.94608" fill="#fff6e0" fill-opacity="0.1"/>
<circle cx="31.5686" cy="172.5" r="3.38235" fill="#fff6e0" fill-opacity="0.1"/>
<ellipse cx="31.5686" cy="200.123" rx="3.38235" ry="3.94608" fill="#fff6e0" fill-opacity="0.1"/>
<ellipse cx="31.5686" cy="228.309" rx="3.38235" ry="3.94608" fill="#fff6e0" fill-opacity="0.1"/>
<ellipse cx="31.5686" cy="256.495" rx="3.38235" ry="3.94608" fill="#fff6e0" fill-opacity="0.1"/>
<ellipse cx="31.5686" cy="284.681" rx="3.38235" ry="3.94608" fill="#fff6e0" fill-opacity="0.1"/>
<ellipse cx="31.5686" cy="312.868" rx="3.38235" ry="3.94608" fill="#fff6e0" fill-opacity="0.1"/>
<ellipse cx="31.5686" cy="341.054" rx="3.38235" ry="3.94608" fill="#fff6e0" fill-opacity="0.1"/>
<circle cx="60.3186" cy="3.94608" r="3.94608" fill="#fff6e0" fill-opacity="0.1"/>
<ellipse cx="60.3186" cy="31.5686" rx="3.94608" ry="3.38235" fill="#fff6e0" fill-opacity="0.1"/>
<circle cx="60.3186" cy="60.3186" r="3.94608" fill="#fff6e0" fill-opacity="0.1"/>
<circle cx="60.3186" cy="87.3774" r="3.94608" fill="#fff6e0" fill-opacity="0.1"/>
<circle cx="60.3186" cy="116.691" r="3.94608" fill="#fff6e0" fill-opacity="0.1"/>
<circle cx="60.3186" cy="143.75" r="3.94608" fill="#fff6e0" fill-opacity="0.1"/>
<ellipse cx="60.3186" cy="172.5" rx="3.94608" ry="3.38235" fill="#fff6e0" fill-opacity="0.1"/>
<circle cx="60.3186" cy="200.123" r="3.94608" fill="#fff6e0" fill-opacity="0.1"/>
<circle cx="60.3186" cy="228.309" r="3.94608" fill="#fff6e0" fill-opacity="0.1"/>
<circle cx="60.3186" cy="256.495" r="3.94608" fill="#fff6e0" fill-opacity="0.1"/>
<circle cx="60.3186" cy="284.681" r="3.94608" fill="#fff6e0" fill-opacity="0.1"/>
<circle cx="60.3186" cy="312.868" r="3.94608" fill="#fff6e0" fill-opacity="0.1"/>
<circle cx="60.3186" cy="341.054" r="3.94608" fill="#fff6e0" fill-opacity="0.1"/>
<circle cx="87.3774" cy="3.94608" r="3.94608" fill="#fff6e0" fill-opacity="0.1"/>
<ellipse cx="87.3774" cy="31.5686" rx="3.94608" ry="3.38235" fill="#fff6e0" fill-opacity="0.1"/>
<circle cx="87.3774" cy="60.3186" r="3.94608" fill="#fff6e0" fill-opacity="0.1"/>
<circle cx="87.3774" cy="87.3774" r="3.94608" fill="#fff6e0" fill-opacity="0.1"/>
<circle cx="87.3774" cy="116.691" r="3.94608" fill="#fff6e0" fill-opacity="0.1"/>
<circle cx="87.3774" cy="143.75" r="3.94608" fill="#fff6e0" fill-opacity="0.1"/>
<ellipse cx="87.3774" cy="172.5" rx="3.94608" ry="3.38235" fill="#fff6e0" fill-opacity="0.1"/>
<circle cx="87.3774" cy="200.123" r="3.94608" fill="#fff6e0" fill-opacity="0.1"/>
<circle cx="87.3774" cy="228.309" r="3.94608" fill="#fff6e0" fill-opacity="0.1"/>
<circle cx="87.3774" cy="256.495" r="3.94608" fill="#fff6e0" fill-opacity="0.1"/>
<circle cx="87.3774" cy="284.681" r="3.94608" fill="#fff6e0" fill-opacity="0.1"/>
<circle cx="87.3774" cy="312.868" r="3.94608" fill="#fff6e0" fill-opacity="0.1"/>
<circle cx="87.3774" cy="341.054" r="3.94608" fill="#fff6e0" fill-opacity="0.1"/>
<circle cx="116.691" cy="3.94608" r="3.94608" fill="#fff6e0" fill-opacity="0.1"/>
<ellipse cx="116.691" cy="31.5686" rx="3.94608" ry="3.38235" fill="#fff6e0" fill-opacity="0.1"/>
<circle cx="116.691" cy="60.3186" r="3.94608" fill="#fff6e0" fill-opacity="0.1"/>
<circle cx="116.691" cy="87.3774" r="3.94608" fill="#fff6e0" fill-opacity="0.1"/>
<circle cx="116.691" cy="116.691" r="3.94608" fill="#fff6e0" fill-opacity="0.1"/>
<circle cx="116.691" cy="143.75" r="3.94608" fill="#fff6e0" fill-opacity="0.1"/>
<ellipse cx="116.691" cy="172.5" rx="3.94608" ry="3.38235" fill="#fff6e0" fill-opacity="0.1"/>
<circle cx="116.691" cy="200.123" r="3.94608" fill="#fff6e0" fill-opacity="0.1"/>
<circle cx="116.691" cy="228.309" r="3.94608" fill="#fff6e0" fill-opacity="0.1"/>
<circle cx="116.691" cy="256.495" r="3.94608" fill="#fff6e0" fill-opacity="0.1"/>
<circle cx="116.691" cy="284.681" r="3.94608" fill="#fff6e0" fill-opacity="0.1"/>
<circle cx="116.691" cy="312.868" r="3.94608" fill="#fff6e0" fill-opacity="0.1"/>
<circle cx="116.691" cy="341.054" r="3.94608" fill="#fff6e0" fill-opacity="0.1"/>
<circle cx="143.75" cy="3.94608" r="3.94608" fill="#fff6e0" fill-opacity="0.1"/>
<ellipse cx="143.75" cy="31.5686" rx="3.94608" ry="3.38235" fill="#fff6e0" fill-opacity="0.1"/>
<circle cx="143.75" cy="60.3186" r="3.94608" fill="#fff6e0" fill-opacity="0.1"/>
<circle cx="143.75" cy="87.3774" r="3.94608" fill="#fff6e0" fill-opacity="0.1"/>
<circle cx="143.75" cy="116.691" r="3.94608" fill="#fff6e0" fill-opacity="0.1"/>
<circle cx="143.75" cy="143.75" r="3.94608" fill="#fff6e0" fill-opacity="0.1"/>
<ellipse cx="143.75" cy="172.5" rx="3.94608" ry="3.38235" fill="#fff6e0" fill-opacity="0.1"/>
<circle cx="143.75" cy="200.123" r="3.94608" fill="#fff6e0" fill-opacity="0.1"/>
<circle cx="143.75" cy="228.309" r="3.94608" fill="#fff6e0" fill-opacity="0.1"/>
<circle cx="143.75" cy="256.495" r="3.94608" fill="#fff6e0" fill-opacity="0.1"/>
<circle cx="143.75" cy="284.681" r="3.94608" fill="#fff6e0" fill-opacity="0.1"/>
<circle cx="143.75" cy="312.868" r="3.94608" fill="#fff6e0" fill-opacity="0.1"/>
<circle cx="143.75" cy="341.054" r="3.94608" fill="#fff6e0" fill-opacity="0.1"/>
<ellipse cx="172.5" cy="3.94608" rx="3.38235" ry="3.94608" fill="#fff6e0" fill-opacity="0.1"/>
<circle cx="172.5" cy="31.5686" r="3.38235" fill="#fff6e0" fill-opacity="0.1"/>
<ellipse cx="172.5" cy="60.3186" rx="3.38235" ry="3.94608" fill="#fff6e0" fill-opacity="0.1"/>
<ellipse cx="172.5" cy="87.3774" rx="3.38235" ry="3.94608" fill="#fff6e0" fill-opacity="0.1"/>
<ellipse cx="172.5" cy="116.691" rx="3.38235" ry="3.94608" fill="#fff6e0" fill-opacity="0.1"/>
<ellipse cx="172.5" cy="143.75" rx="3.38235" ry="3.94608" fill="#fff6e0" fill-opacity="0.1"/>
<circle cx="172.5" cy="172.5" r="3.38235" fill="#fff6e0" fill-opacity="0.1"/>
<ellipse cx="172.5" cy="200.123" rx="3.38235" ry="3.94608" fill="#fff6e0" fill-opacity="0.1"/>
<ellipse cx="172.5" cy="228.309" rx="3.38235" ry="3.94608" fill="#fff6e0" fill-opacity="0.1"/>
<ellipse cx="172.5" cy="256.495" rx="3.38235" ry="3.94608" fill="#fff6e0" fill-opacity="0.1"/>
<ellipse cx="172.5" cy="284.681" rx="3.38235" ry="3.94608" fill="#fff6e0" fill-opacity="0.1"/>
<ellipse cx="172.5" cy="312.868" rx="3.38235" ry="3.94608" fill="#fff6e0" fill-opacity="0.1"/>
<ellipse cx="172.5" cy="341.054" rx="3.38235" ry="3.94608" fill="#fff6e0" fill-opacity="0.1"/>
<circle cx="200.123" cy="3.94608" r="3.94608" fill="#fff6e0" fill-opacity="0.1"/>
<ellipse cx="200.123" cy="31.5686" rx="3.94608" ry="3.38235" fill="#fff6e0" fill-opacity="0.1"/>
<circle cx="200.123" cy="60.3186" r="3.94608" fill="#fff6e0" fill-opacity="0.1"/>
<circle cx="200.123" cy="87.3774" r="3.94608" fill="#fff6e0" fill-opacity="0.1"/>
<circle cx="200.123" cy="116.691" r="3.94608" fill="#fff6e0" fill-opacity="0.1"/>
<circle cx="200.123" cy="143.75" r="3.94608" fill="#fff6e0" fill-opacity="0.1"/>
<ellipse cx="200.123" cy="172.5" rx="3.94608" ry="3.38235" fill="#fff6e0" fill-opacity="0.1"/>
<circle cx="200.123" cy="200.123" r="3.94608" fill="#fff6e0" fill-opacity="0.1"/>
<circle cx="200.123" cy="228.309" r="3.94608" fill="#fff6e0" fill-opacity="0.1"/>
<circle cx="200.123" cy="256.495" r="3.94608" fill="#fff6e0" fill-opacity="0.1"/>
<circle cx="200.123" cy="284.681" r="3.94608" fill="#fff6e0" fill-opacity="0.1"/>
<circle cx="200.123" cy="312.868" r="3.94608" fill="#fff6e0" fill-opacity="0.1"/>
<circle cx="200.123" cy="341.054" r="3.94608" fill="#fff6e0" fill-opacity="0.1"/>
<circle cx="228.309" cy="3.94608" r="3.94608" fill="#fff6e0" fill-opacity="0.1"/>
<ellipse cx="228.309" cy="31.5686" rx="3.94608" ry="3.38235" fill="#fff6e0" fill-opacity="0.1"/>
<circle cx="228.309" cy="60.3186" r="3.94608" fill="#fff6e0" fill-opacity="0.1"/>
<circle cx="228.309" cy="87.3774" r="3.94608" fill="#fff6e0" fill-opacity="0.1"/>
<circle cx="228.309" cy="116.691" r="3.94608" fill="#fff6e0" fill-opacity="0.1"/>
<circle cx="228.309" cy="143.75" r="3.94608" fill="#fff6e0" fill-opacity="0.1"/>
<ellipse cx="228.309" cy="172.5" rx="3.94608" ry="3.38235" fill="#fff6e0" fill-opacity="0.1"/>
<circle cx="228.309" cy="200.123" r="3.94608" fill="#fff6e0" fill-opacity="0.1"/>
<circle cx="228.309" cy="228.309" r="3.94608" fill="#fff6e0" fill-opacity="0.1"/>
<circle cx="228.309" cy="256.495" r="3.94608" fill="#fff6e0" fill-opacity="0.1"/>
<circle cx="228.309" cy="284.681" r="3.94608" fill="#fff6e0" fill-opacity="0.1"/>
<circle cx="228.309" cy="312.868" r="3.94608" fill="#fff6e0" fill-opacity="0.1"/>
<circle cx="228.309" cy="341.054" r="3.94608" fill="#fff6e0" fill-opacity="0.1"/>
<circle cx="256.495" cy="3.94608" r="3.94608" fill="#fff6e0" fill-opacity="0.1"/>
<ellipse cx="256.495" cy="31.5686" rx="3.94608" ry="3.38235" fill="#fff6e0" fill-opacity="0.1"/>
<circle cx="256.495" cy="60.3186" r="3.94608" fill="#fff6e0" fill-opacity="0.1"/>
<circle cx="256.495" cy="87.3774" r="3.94608" fill="#fff6e0" fill-opacity="0.1"/>
<circle cx="256.495" cy="116.691" r="3.94608" fill="#fff6e0" fill-opacity="0.1"/>
<circle cx="256.495" cy="143.75" r="3.94608" fill="#fff6e0" fill-opacity="0.1"/>
<ellipse cx="256.495" cy="172.5" rx="3.94608" ry="3.38235" fill="#fff6e0" fill-opacity="0.1"/>
<circle cx="256.495" cy="200.123" r="3.94608" fill="#fff6e0" fill-opacity="0.1"/>
<circle cx="256.495" cy="228.309" r="3.94608" fill="#fff6e0" fill-opacity="0.1"/>
<circle cx="256.495" cy="256.495" r="3.94608" fill="#fff6e0" fill-opacity="0.1"/>
<circle cx="256.495" cy="284.681" r="3.94608" fill="#fff6e0" fill-opacity="0.1"/>
<circle cx="256.495" cy="312.868" r="3.94608" fill="#fff6e0" fill-opacity="0.1"/>
<circle cx="256.495" cy="341.054" r="3.94608" fill="#fff6e0" fill-opacity="0.1"/>
<circle cx="284.681" cy="3.94608" r="3.94608" fill="#fff6e0" fill-opacity="0.1"/>
<ellipse cx="284.681" cy="31.5686" rx="3.94608" ry="3.38235" fill="#fff6e0" fill-opacity="0.1"/>
<circle cx="284.681" cy="60.3186" r="3.94608" fill="#fff6e0" fill-opacity="0.1"/>
<circle cx="284.681" cy="87.3774" r="3.94608" fill="#fff6e0" fill-opacity="0.1"/>
<circle cx="284.681" cy="116.691" r="3.94608" fill="#fff6e0" fill-opacity="0.1"/>
<circle cx="284.681" cy="143.75" r="3.94608" fill="#fff6e0" fill-opacity="0.1"/>
<ellipse cx="284.681" cy="172.5" rx="3.94608" ry="3.38235" fill="#fff6e0" fill-opacity="0.1"/>
<circle cx="284.681" cy="200.123" r="3.94608" fill="#fff6e0" fill-opacity="0.1"/>
<circle cx="284.681" cy="228.309" r="3.94608" fill="#fff6e0" fill-opacity="0.1"/>
<circle cx="284.681" cy="256.495" r="3.94608" fill="#fff6e0" fill-opacity="0.1"/>
<circle cx="284.681" cy="284.681" r="3.94608" fill="#fff6e0" fill-opacity="0.1"/>
<circle cx="284.681" cy="312.868" r="3.94608" fill="#fff6e0" fill-opacity="0.1"/>
<circle cx="284.681" cy="341.054" r="3.94608" fill="#fff6e0" fill-opacity="0.1"/>
<circle cx="312.868" cy="3.94608" r="3.94608" fill="#fff6e0" fill-opacity="0.1"/>
<ellipse cx="312.868" cy="31.5686" rx="3.94608" ry="3.38235" fill="#fff6e0" fill-opacity="0.1"/>
<circle cx="312.868" cy="60.3186" r="3.94608" fill="#fff6e0" fill-opacity="0.1"/>
<circle cx="312.868" cy="87.3774" r="3.94608" fill="#fff6e0" fill-opacity="0.1"/>
<circle cx="312.868" cy="116.691" r="3.94608" fill="#fff6e0" fill-opacity="0.1"/>
<circle cx="312.868" cy="143.75" r="3.94608" fill="#fff6e0" fill-opacity="0.1"/>
<ellipse cx="312.868" cy="172.5" rx="3.94608" ry="3.38235" fill="#fff6e0" fill-opacity="0.1"/>
<circle cx="312.868" cy="200.123" r="3.94608" fill="#fff6e0" fill-opacity="0.1"/>
<circle cx="312.868" cy="228.309" r="3.94608" fill="#fff6e0" fill-opacity="0.1"/>
<circle cx="312.868" cy="256.495" r="3.94608" fill="#fff6e0" fill-opacity="0.1"/>
<circle cx="312.868" cy="284.681" r="3.94608" fill="#fff6e0" fill-opacity="0.1"/>
<circle cx="312.868" cy="312.868" r="3.94608" fill="#fff6e0" fill-opacity="0.1"/>
<circle cx="312.868" cy="341.054" r="3.94608" fill="#fff6e0" fill-opacity="0.1"/>
<circle cx="341.054" cy="3.94608" r="3.94608" fill="#fff6e0" fill-opacity="0.1"/>
<ellipse cx="341.054" cy="31.5686" rx="3.94608" ry="3.38235" fill="#fff6e0" fill-opacity="0.1"/>
<circle cx="341.054" cy="60.3186" r="3.94608" fill="#fff6e0" fill-opacity="0.1"/>
<circle cx="341.054" cy="87.3774" r="3.94608" fill="#fff6e0" fill-opacity="0.1"/>
<circle cx="341.054" cy="116.691" r="3.94608" fill="#fff6e0" fill-opacity="0.1"/>
<circle cx="341.054" cy="143.75" r="3.94608" fill="#fff6e0" fill-opacity="0.1"/>
<ellipse cx="341.054" cy="172.5" rx="3.94608" ry="3.38235" fill="#fff6e0" fill-opacity="0.1"/>
<circle cx="341.054" cy="200.123" r="3.94608" fill="#fff6e0" fill-opacity="0.1"/>
<circle cx="341.054" cy="228.309" r="3.94608" fill="#fff6e0" fill-opacity="0.1"/>
<circle cx="341.054" cy="256.495" r="3.94608" fill="#fff6e0" fill-opacity="0.1"/>
<circle cx="341.054" cy="284.681" r="3.94608" fill="#fff6e0" fill-opacity="0.1"/>
<circle cx="341.054" cy="312.868" r="3.94608" fill="#fff6e0" fill-opacity="0.1"/>
<circle cx="341.054" cy="341.054" r="3.94608" fill="#fff6e0" fill-opacity="0.1"/>
</svg>
