<svg width="109" height="109" viewBox="0 0 109 109" fill="none" xmlns="http://www.w3.org/2000/svg">
<path d="M29.9081 38.3572C30.0747 38.2072 29.9803 37.8017 30.4636 38.1183C31.8634 39.2293 32.3356 40.7514 33.7354 41.8513C33.8521 41.7902 33.9688 41.7402 34.0854 41.6846C34.9409 42.7568 35.8019 43.9066 36.7129 45.0565C38.6387 46.9082 40.5829 48.7302 42.5457 50.5226C42.5901 50.3838 42.6568 50.2727 42.879 50.4282C43.7233 51.1392 44.7177 52.3058 45.8064 53.4557L46.3619 53.9056C46.4222 53.9328 46.4875 53.9468 46.5536 53.9468C46.6197 53.9468 46.685 53.9328 46.7452 53.9056C47.2396 54.4222 47.6674 54.8944 48.0562 55.3388C54.0556 60.3383 60.2327 65.3378 66.8654 70.7761C68.3819 71.8205 69.8984 72.8648 71.2372 73.9869C73.1648 75.7145 75.3257 78.2143 77.0755 80.0252C77.7087 78.8475 82.4916 82.7416 82.5416 80.9584C83.7081 82.1639 85.458 83.9803 85.8079 83.8137C86.8523 83.3193 88.6521 83.3471 92.2684 86.0357C93.6071 87.1467 95.1792 89.3687 95.768 89.6575C96.7012 90.0964 94.7126 87.5189 95.6402 87.9577C86.7523 78.5142 77.5921 70.0151 68.3708 60.7771C64.8267 58.0385 43.4567 37.024 38.1961 31.4024L37.6906 30.9191C34.743 27.8024 31.588 24.8886 28.2471 22.1977C26.8806 21.259 25.4696 20.3424 24.0309 19.4202C24.4253 20.1146 24.7808 20.7646 25.0697 21.3478C23.8976 20.1424 22.731 18.9314 22.1144 18.6426C19.198 16.4983 20.1757 18.387 20.5312 19.9757C20.959 20.9423 19.6036 20.4146 20.4201 21.7811L18.4759 19.7702C18.1259 19.9369 21.0423 22.0755 20.0757 21.9478C19.4091 21.0867 18.4092 20.3924 17.626 19.5869C17.5482 20.2091 20.2313 22.4588 19.7702 22.681C19.2647 22.3311 18.0148 19.9924 17.4316 20.2646C17.3149 20.3202 18.0982 21.1256 18.487 21.5256C15.9206 19.2258 14.1708 18.287 15.9262 20.9701C15.1651 20.1868 14.2597 18.9147 13.382 18.1593C13.7764 18.5814 14.3874 19.3703 14.7596 19.7535L13.332 18.3315C13.332 18.4648 13.3653 18.6037 13.3931 18.7536C13.6863 19.159 14.0054 19.545 14.3485 19.9091C14.0486 19.5925 13.743 19.2814 13.4431 18.9703C13.5453 19.3725 13.6733 19.7677 13.8264 20.1535C14.6485 21.5256 15.2929 22.981 15.8762 23.5865C20.4812 28.586 25.153 33.541 29.9081 38.3572Z" fill="#fff6e0"/>
<path d="M38.3572 78.9086C38.2072 78.7364 37.8017 78.8364 38.1183 78.3531C39.2293 76.9533 40.7514 76.4866 41.8513 75.0812C41.7902 74.9701 41.7402 74.8535 41.6846 74.7368C42.7567 73.8813 43.9066 73.0148 45.0565 72.1093C46.9082 70.1762 48.7302 68.2301 50.5226 66.271C50.3837 66.2266 50.2726 66.1655 50.4282 65.9433C51.1392 65.0934 52.3058 64.1046 53.4557 63.0102L53.9056 62.4547C53.933 62.3955 53.9472 62.3311 53.9472 62.2659C53.9472 62.2006 53.933 62.1362 53.9056 62.077C54.4222 61.577 54.8944 61.1549 55.3388 60.766C60.3383 54.7611 65.3378 48.5895 70.7761 41.9568C71.8205 40.4403 72.8648 38.9238 73.9869 37.5851C75.7145 35.6575 78.2142 33.4966 80.0252 31.7468C78.8475 31.1135 82.7416 26.3306 80.9584 26.2806C82.1638 25.1141 83.9803 23.3587 83.8137 23.0143C83.3193 21.97 83.3471 20.1702 86.0357 16.5539C87.1467 15.2151 89.3687 13.643 89.6575 13.0542C90.0964 12.121 87.5189 14.1097 87.9577 13.1764C78.5142 22.0644 70.0151 31.2246 60.7771 40.4514C58.0385 43.9955 37.024 65.36 31.4023 70.6261L30.9191 71.1316C27.8011 74.0779 24.8872 77.2331 22.1977 80.5751C21.2589 81.9361 20.3424 83.3526 19.4202 84.7858C20.1146 84.3914 20.7645 84.0414 21.3478 83.7526C20.1424 84.9191 18.9314 86.0857 18.6425 86.7078C16.4983 89.6242 18.387 88.6465 19.9757 88.291C20.9423 87.8577 20.4146 89.2187 21.7811 88.3965L19.7702 90.3463C19.9368 90.6908 22.0755 87.7744 21.9478 88.7465C21.0867 89.4075 20.3924 90.413 19.5869 91.1963C20.209 91.2685 22.4588 88.5854 22.681 89.052C22.331 89.5575 19.9924 90.8074 20.2646 91.3851C20.3201 91.5018 21.1256 90.7241 21.5256 90.3352C19.2258 92.9016 18.287 94.6515 20.9701 92.8961C20.1868 93.6516 18.9147 94.5626 18.1593 95.4403C18.5814 95.0459 19.3702 94.4293 19.7535 94.0626L18.3315 95.468C18.4648 95.468 18.6037 95.4292 18.7536 95.4014C19.1619 95.1034 19.5515 94.7806 19.9202 94.4348L18.9814 95.3403C19.3844 95.2385 19.7798 95.1085 20.1646 94.9514C21.5367 94.1348 22.9921 93.4849 23.5976 92.9016C28.586 88.3243 33.541 83.6637 38.3572 78.9086Z" fill="#fff6e0"/>
</svg>
