<svg width="109" height="109" viewBox="0 0 109 109" fill="none" xmlns="http://www.w3.org/2000/svg">
<g clip-path="url(#clip0)">
<path d="M48.3284 26.0085C48.5562 26.0085 48.7784 25.6585 48.8839 26.2196C49.095 27.986 48.3284 29.4081 48.5562 31.1746L48.9172 31.3024C48.7672 32.6689 48.5617 34.0799 48.3951 35.5464C48.4469 38.2239 48.5321 40.8884 48.6506 43.54C48.7839 43.4678 48.9061 43.4345 48.9561 43.7011C49.0505 44.8121 48.9228 46.3286 48.8895 47.9173C48.8895 48.1507 48.9283 48.384 48.9506 48.6117C48.9748 48.6733 49.013 48.7285 49.0621 48.7728C49.1113 48.8172 49.1701 48.8495 49.2339 48.8672C49.2339 49.5838 49.1894 50.2227 49.1505 50.8115C49.8616 58.5885 50.7004 66.4766 51.5336 75.0257C51.8669 76.8366 52.2002 78.6475 52.3502 80.3863C52.4891 82.9693 52.2558 86.2634 52.2113 88.7854C53.4945 88.3965 54.1223 94.5348 55.4166 93.3127C55.4166 94.9792 55.3444 97.5067 55.711 97.6401C56.822 98.0289 58.0496 99.3065 58.7051 103.751C58.8551 105.495 58.3996 108.195 58.6162 108.789C58.9662 109.755 59.3828 106.528 59.7272 107.495C60.1216 94.5293 59.6495 82.0472 59.6606 68.993C59.1051 64.549 58.844 34.5798 59.1051 26.8862V26.1862C59.2265 21.8947 59.0539 17.5999 58.5885 13.332C58.2885 11.6988 57.9219 10.0434 57.5663 8.39359C57.3553 9.16018 57.1442 9.87122 56.9386 10.4878C56.9386 8.82133 56.9942 7.15483 56.7609 6.48268C56.2054 2.90526 55.5721 4.93283 54.7 6.31047C54.3167 7.29926 53.7334 5.96051 53.3446 7.51035C53.3446 6.39935 53.3446 5.84385 53.389 4.73285C53.0279 4.60509 53.5779 8.1825 52.9835 7.4048C53.1224 6.32714 52.9002 5.1217 52.9168 4.00515C52.428 4.38845 52.7335 7.89364 52.2502 7.70477C52.1391 7.09928 52.9057 4.56065 52.3058 4.34401C52.1836 4.30512 52.1669 5.42167 52.1558 5.98273C51.9725 2.53863 51.3948 0.638828 50.7337 3.76073C50.7337 2.64973 51.0115 1.12767 50.9281 -0.027771C50.9281 0.527728 50.7837 1.53874 50.7726 2.07201L50.7615 0.144434C50.6782 0.249978 50.5948 0.366633 50.5115 0.488843C50.4321 0.981554 50.3838 1.47879 50.3671 1.97758C50.3671 1.54429 50.3671 1.111 50.3671 0.672158C50.1578 1.02995 49.9723 1.40108 49.8116 1.78316C49.4394 3.333 48.8839 4.82173 48.8506 5.66054C48.5617 12.4376 48.3617 19.2425 48.3284 26.0085Z" fill="#fff6e0"/>
<path d="M29.9081 38.3572C30.0747 38.2072 29.9803 37.8017 30.4636 38.1184C31.8634 39.2294 32.3356 40.7514 33.7354 41.8513C33.8521 41.7902 33.9688 41.7402 34.0854 41.6847C34.9409 42.7568 35.8019 43.9067 36.7129 45.0565C38.6386 46.9082 40.5829 48.7302 42.5457 50.5226C42.5901 50.3838 42.6568 50.2727 42.879 50.4282C43.7233 51.1393 44.7177 52.3058 45.8064 53.4557L46.3619 53.9056C46.4222 53.9328 46.4875 53.9468 46.5536 53.9468C46.6197 53.9468 46.685 53.9328 46.7452 53.9056C47.2396 54.4223 47.6674 54.8944 48.0562 55.3388C54.0556 60.3383 60.2327 65.3378 66.8654 70.7761C68.3819 71.8205 69.8984 72.8648 71.2372 73.9869C73.1648 75.7145 75.3256 78.2143 77.0755 80.0252C77.7087 78.8475 82.4916 82.7416 82.5416 80.9584C83.7081 82.1639 85.4579 83.9804 85.8079 83.8137C86.8522 83.3193 88.6521 83.3471 92.2684 86.0357C93.6071 87.1467 95.1792 89.3687 95.768 89.6575C96.7012 90.0964 94.7126 87.5189 95.6402 87.9577C86.7523 78.5142 77.5921 70.0151 68.3708 60.7772C64.8267 58.0386 43.4567 37.024 38.1961 31.4024L37.6906 30.9191C34.743 27.8024 31.5879 24.8887 28.2471 22.1978C26.8806 21.259 25.4696 20.3424 24.0309 19.4203C24.4253 20.1146 24.7808 20.7646 25.0697 21.3478C23.8976 20.1424 22.731 18.9314 22.1144 18.6426C19.198 16.4983 20.1757 18.387 20.5312 19.9758C20.959 20.9423 19.6036 20.4146 20.4201 21.7811L18.4759 19.7702C18.1259 19.9369 21.0423 22.0755 20.0757 21.9478C19.4091 21.0868 18.4092 20.3924 17.626 19.5869C17.5482 20.2091 20.2313 22.4588 19.7702 22.681C19.2647 22.3311 18.0148 19.9924 17.4316 20.2646C17.3149 20.3202 18.0982 21.1256 18.487 21.5256C15.9206 19.2258 14.1708 18.287 15.9262 20.9701C15.1651 20.1869 14.2597 18.9148 13.382 18.1593C13.7764 18.5815 14.3874 19.3703 14.7596 19.7536L13.332 18.3315C13.332 18.4648 13.3653 18.6037 13.3931 18.7537C13.6863 19.1591 14.0054 19.545 14.3485 19.9091C14.0486 19.5925 13.743 19.2814 13.4431 18.9703C13.5453 19.3725 13.6733 19.7678 13.8264 20.1535C14.6485 21.5256 15.2929 22.981 15.8762 23.5865C20.4812 28.586 25.153 33.541 29.9081 38.3572Z" fill="#fff6e0"/>
<path d="M26.0085 60.4939C26.0085 60.2717 25.6585 60.0439 26.2196 59.9384C27.986 59.7217 29.4081 60.4939 31.1746 60.2606C31.2135 60.1439 31.2579 60.0217 31.3024 59.8995C32.6689 60.055 34.0799 60.255 35.5464 60.455C38.2239 60.4031 40.8884 60.3161 43.54 60.1939C43.4678 60.0606 43.4345 59.9384 43.7011 59.8939C44.8121 59.7939 46.3286 59.8939 47.9173 59.9606L48.6117 59.8995C48.6733 59.8753 48.7285 59.8371 48.7728 59.7879C48.8172 59.7387 48.8495 59.6799 48.8672 59.6162C49.5838 59.6162 50.2227 59.6606 50.8115 59.6995C58.5885 58.9885 66.4766 58.1441 75.0257 57.3164C76.8366 56.9831 78.6475 56.6498 80.3863 56.4943C82.9693 56.3554 86.2634 56.5943 88.7854 56.6331C88.3965 55.3555 94.5348 54.7278 93.3127 53.4335C94.9792 53.4335 97.5067 53.5001 97.6401 53.1391C98.0289 52.0281 99.3065 50.8004 103.751 50.1449C105.495 49.9949 108.195 50.4504 108.789 50.2282C109.755 49.8838 106.528 49.4616 107.495 49.1172C94.5293 48.7228 82.0472 49.195 68.993 49.1839C64.549 49.7394 34.5798 50.0005 26.8862 49.7394H26.1862C21.8948 49.6191 17.6003 49.7898 13.332 50.2505C11.6988 50.556 10.0434 50.9226 8.39359 51.2726C9.16018 51.4837 9.87122 51.6948 10.4878 51.9058C8.82133 51.9058 7.15483 51.8503 6.48268 52.078C2.90526 52.6335 4.93283 53.2668 6.31047 54.139C7.29926 54.5222 5.96051 55.1111 7.51035 55.4999L4.73285 55.4499C4.60509 55.8166 8.1825 55.2666 7.4048 55.861C6.32714 55.7221 5.1217 55.9443 4.00515 55.9221C4.38845 56.4165 7.89364 56.111 7.70477 56.5943C7.09928 56.7054 4.56065 55.9332 4.34401 56.5387C4.30512 56.6609 5.42167 56.6776 5.98273 56.6887C2.53863 56.872 0.638828 57.4497 3.76073 58.1052C2.64973 58.1052 1.12767 57.833 -0.027771 57.9163C0.527728 57.9163 1.53874 58.0608 2.07201 58.0663L0.144434 58.0497C0.254875 58.1406 0.369823 58.2259 0.488843 58.3052C0.981554 58.3846 1.47879 58.4329 1.97758 58.4496H0.672158C1.02997 58.6588 1.40109 58.8444 1.78316 59.0051C3.333 59.3995 4.81618 59.9661 5.67165 59.9828C12.4376 60.255 19.2425 60.455 26.0085 60.4939Z" fill="#fff6e0"/>
<path d="M38.3572 78.9086C38.2072 78.7364 37.8017 78.8364 38.1183 78.3531C39.2293 76.9533 40.7514 76.4866 41.8513 75.0812C41.7902 74.9701 41.7402 74.8535 41.6846 74.7368C42.7567 73.8814 43.9066 73.0148 45.0565 72.1093C46.9082 70.1762 48.7302 68.2301 50.5226 66.271C50.3837 66.2266 50.2726 66.1655 50.4282 65.9433C51.1392 65.0934 52.3058 64.1046 53.4557 63.0102L53.9056 62.4547C53.933 62.3955 53.9472 62.3311 53.9472 62.2659C53.9472 62.2006 53.933 62.1362 53.9056 62.077C54.4222 61.5771 54.8944 61.1549 55.3388 60.766C60.3383 54.7611 65.3378 48.5895 70.7761 41.9568C71.8205 40.4403 72.8648 38.9238 73.9869 37.5851C75.7145 35.6575 78.2142 33.4966 80.0252 31.7468C78.8475 31.1135 82.7416 26.3306 80.9584 26.2807C82.1638 25.1141 83.9803 23.3587 83.8137 23.0143C83.3193 21.97 83.3471 20.1702 86.0357 16.5539C87.1467 15.2151 89.3687 13.643 89.6575 13.0542C90.0964 12.121 87.5189 14.1097 87.9577 13.1764C78.5142 22.0644 70.0151 31.2246 60.7771 40.4514C58.0385 43.9955 37.024 65.36 31.4023 70.6261L30.9191 71.1316C27.8011 74.0779 24.8872 77.2331 22.1977 80.5751C21.2589 81.9361 20.3424 83.3526 19.4202 84.7858C20.1146 84.3914 20.7645 84.0414 21.3478 83.7526C20.1424 84.9191 18.9314 86.0857 18.6425 86.7078C16.4983 89.6242 18.387 88.6465 19.9757 88.291C20.9423 87.8577 20.4146 89.2187 21.7811 88.3966L19.7702 90.3464C19.9368 90.6908 22.0755 87.7744 21.9478 88.7465C21.0867 89.4076 20.3924 90.413 19.5869 91.1963C20.209 91.2685 22.4588 88.5854 22.681 89.052C22.331 89.5575 19.9924 90.8074 20.2646 91.3851C20.3201 91.5018 21.1256 90.7241 21.5256 90.3352C19.2258 92.9016 18.287 94.6515 20.9701 92.8961C20.1868 93.6516 18.9147 94.5626 18.1593 95.4403C18.5814 95.0459 19.3702 94.4293 19.7535 94.0626L18.3315 95.468C18.4648 95.468 18.6037 95.4292 18.7536 95.4014C19.1619 95.1034 19.5515 94.7806 19.9202 94.4348L18.9814 95.3403C19.3844 95.2385 19.7798 95.1086 20.1646 94.9514C21.5367 94.1348 22.9921 93.4849 23.5976 92.9016C28.586 88.3243 33.541 83.6637 38.3572 78.9086Z" fill="#fff6e0"/>
</g>
<defs>
<clipPath id="clip0">
<rect width="109" height="109" fill="white"/>
</clipPath>
</defs>
</svg>
