<svg width="170" height="110" viewBox="0 0 170 110" fill="none" xmlns="http://www.w3.org/2000/svg">
<g clip-path="url(#clip0)">
<path d="M60.9251 20.8339C61.2361 20.8339 61.5396 19.8357 61.6837 21.4389C61.972 26.498 60.9251 30.5589 61.2361 35.618L61.7292 35.981L61.0161 48.141C61.0819 55.8091 61.1982 63.4394 61.3651 71.0319C61.5471 70.8352 61.7141 70.7369 61.7823 71.4932C61.9113 74.6542 61.7368 79.0554 61.6913 83.5927L61.7747 85.5967C61.7815 85.7429 61.8195 85.886 61.8863 86.0164C61.953 86.1469 62.0469 86.2616 62.1616 86.3529C62.1616 88.4023 62.1009 90.2248 62.0478 91.9187L62.1541 94.3613L62.2678 94.8226C62.3361 95.1629 62.412 95.5788 62.4878 96.0174C62.1009 96.1233 61.6154 96.2367 61.0313 96.3426H60.9175H60.8644H60.7506L59.8554 96.388L58.0727 96.4711L54.4844 96.6375L39.9036 97.3332L24.9208 98.0517L17.2587 98.4071L16.2877 98.4524H15.8477H15.5897L14.5276 98.5432L12.2518 98.7247L11.2883 98.8532C11.0835 97.6887 10.8787 96.335 10.7042 94.8301L10.6435 94.2554L10.6207 93.416L10.5069 91.6918C10.4387 90.5424 10.378 89.4232 10.3325 88.2737C10.1428 80.8779 10.4614 71.4478 10.5221 64.2334C8.73176 65.3375 7.87452 47.7629 6.10692 51.2718C6.10692 46.4698 6.20554 39.2479 5.71244 38.8773C4.19519 37.7581 2.51104 34.0602 1.62346 21.2952C1.41104 16.3041 2.03311 8.62846 1.73725 6.86647C1.25932 4.0987 0.690348 13.3473 0.212415 10.5871C0 26.014 0 41.2216 0 56.4141C0.0834486 74.1626 0.159311 91.896 0.24276 109.871L26.7111 109.826C29.2677 109.675 34.7829 109.539 42.1491 109.418L54.4464 109.251L61.8961 109.183L75.6803 109.123C75.612 92.1153 75.5438 73.2249 75.4831 56.6788C75.4831 42.3106 75.4831 30.0144 75.612 23.405V21.4086V13.8464C75.612 9.27125 75.612 4.62049 75.612 -0.0302734L64.3541 0.0831598L61.6003 0.113409H59.7796L56.8968 0.21928C53.1037 0.332713 49.5306 0.491519 46.3747 0.695699C41.7243 1.10406 36.9374 1.60316 32.196 2.08715C34.396 2.37451 36.4367 2.66188 38.2119 2.94168C33.3794 2.90387 28.5546 2.86605 26.7036 3.18367C16.4318 3.93989 22.2504 4.80198 26.2029 5.98925C29.0477 6.51104 25.2015 7.30507 29.6546 7.83443L21.6132 7.77393C21.2415 8.26548 31.5208 7.51682 29.2829 8.32597C26.1953 8.13692 22.7284 8.43941 19.5118 8.41672C20.627 9.0822 30.6484 8.66627 30.1325 9.32419C28.3953 9.47543 21.0973 8.43184 20.4753 9.24856C20.3539 9.41493 23.5704 9.43762 25.1787 9.45274C15.3166 9.7023 9.83177 10.4888 18.867 11.3887C15.7263 11.3887 11.2807 11.0106 7.97314 11.124C9.62694 11.124 12.4794 11.3206 14.0421 11.3357L8.41314 11.3433C8.709 11.4567 9.05038 11.5702 9.39935 11.6836C10.8104 11.7895 12.2214 11.8651 13.6856 11.8802H9.93797C10.8711 12.1449 11.9483 12.4096 13.1318 12.6364C17.5849 13.1658 21.856 13.9447 24.2608 13.9598L46.4885 14.3531L57.6023 14.4967H60.3789H60.8568L60.9706 14.5497L60.9175 14.7085L60.9251 20.8339Z" fill="#4EF20D"/>
<path d="M155.131 59.6961C155.131 59.3936 155.078 59.0911 155.207 58.9398C155.233 58.9166 155.265 58.8999 155.299 58.891C155.334 58.8821 155.37 58.8813 155.404 58.8886C155.439 58.896 155.471 58.9113 155.499 58.9333C155.526 58.9553 155.549 58.9834 155.563 59.0155C155.606 59.1302 155.606 59.2562 155.563 59.3709C155.495 59.4919 155.472 59.5373 155.563 59.5373L156.057 59.2575C155.975 59.4479 155.857 59.6201 155.708 59.7641C155.708 59.7641 155.708 59.8473 155.708 59.8851L155.654 60.4296L155.518 61.5564L155.336 63.7645C155.412 69.2194 155.531 74.644 155.692 80.0384C155.874 79.8947 156.041 79.8267 156.11 80.3636C156.239 82.6323 156.064 85.7177 156.011 88.9467L156.102 90.3608C156.124 90.471 156.17 90.575 156.236 90.6652C156.303 90.7555 156.39 90.8297 156.489 90.8826C156.489 91.6389 156.489 92.3043 156.443 92.9547L156.405 93.9151V94.1495C156.408 94.2024 156.408 94.2554 156.405 94.3083V94.3764C156.594 94.8912 156.744 95.4196 156.853 95.9569C156.548 96.0876 156.233 96.1963 155.912 96.2821L155.275 96.456H155.192H154.873L154.236 96.5014L152.961 96.5846L142.599 97.2803L120.97 98.7171C119.127 98.944 117.276 99.1708 115.447 99.3674L112.716 99.6397L111.366 99.7456L110.091 99.8363C108.415 99.9195 106.48 99.9044 104.637 99.8363L104.751 96.3123L104.811 94.6713V92.6598C103.059 93.416 102.202 80.9534 100.434 83.4414C100.434 80.0309 100.533 74.8961 100.032 74.639C98.5149 73.8828 96.8383 71.2133 95.9432 62.1387C95.7383 58.592 96.3604 53.1396 96.057 51.8843C95.5866 49.9181 95.0177 56.4897 94.5397 54.5159C94.3728 62.547 94.3197 70.4873 94.3273 78.3974C94.3273 88.924 94.4108 99.4128 94.4563 109.947L117.67 109.826L133.199 109.773C135.02 109.622 138.95 109.486 144.184 109.365L152.923 109.198L160.259 109.13L170.023 109.07C169.962 98.0138 169.901 85.937 169.841 74.7827C169.841 70.3437 169.841 66.0861 169.841 62.1992C169.841 55.7561 169.841 49.9332 169.894 45.0707L159.152 44.9875H156.474H149.168C146.892 44.9875 144.533 44.9875 142.242 45.0783C137.69 45.1766 133.245 45.3808 129.618 45.7135C126.288 46.1219 122.905 46.621 119.536 47.0974C121.099 47.3848 122.571 47.6721 123.807 47.9595C120.378 47.9217 116.98 47.8839 115.637 48.2015C108.331 48.9577 112.466 49.8198 115.28 51.0071C117.298 51.5213 114.567 52.3229 117.731 52.8523L112.018 52.7842C111.753 53.2833 119.051 52.5346 117.465 53.3438C115.265 53.1547 112.807 53.4572 110.524 53.4345C111.283 54.1 118.436 53.6841 118.11 54.342C116.874 54.4933 111.692 53.4421 111.245 54.2664C111.161 54.4328 113.445 54.4554 114.59 54.4706C107.558 54.7201 103.681 55.5066 110.099 56.4065C107.869 56.4065 104.72 56.0284 102.361 56.1418C103.545 56.1418 105.57 56.3384 106.655 56.3536L102.642 56.3082C102.854 56.4216 103.089 56.5351 103.34 56.6485C104.341 56.7468 105.343 56.83 106.374 56.8451H103.711C104.457 57.1352 105.216 57.3876 105.987 57.6013C109.151 58.1307 112.185 58.9096 113.9 58.9247C120.818 59.1213 127.745 59.2827 134.678 59.4087L145.072 59.5675L155.131 59.6961Z" fill="#4EF20D"/>
<path d="M100.381 44.2012C100.401 44.4528 100.401 44.7057 100.381 44.9574C100.267 45.2448 100.154 44.2012 100.032 44.5188V45.0103C99.9335 44.7986 99.8273 44.5263 99.7211 44.2995C99.5163 44.3825 99.3305 44.506 99.1749 44.6625C99.1877 44.7983 99.1877 44.935 99.1749 45.0708C99.099 45.2069 98.9928 45.033 98.879 44.9801L98.8335 45.0708C98.826 45.1993 98.826 45.3281 98.8335 45.4565C98.7769 45.4344 98.729 45.3946 98.697 45.3431C98.1659 46.3186 97.6349 47.468 97.0508 48.6099C96.9715 48.9944 96.852 49.3695 96.6942 49.7292C96.5197 49.9182 96.2846 49.6006 96.1101 49.5477C96.1556 51.2945 95.7459 52.1491 95.8521 53.9111C95.7383 53.8732 95.5563 53.8203 95.5563 54.3119C95.6042 55.6832 95.4793 57.0551 95.1846 58.3955C95.0632 58.6072 94.8735 57.9871 94.8356 58.2896C94.7749 58.7584 95.0025 59.3256 94.9418 59.802C95.8521 60.3238 96.717 59.6735 97.6273 59.6735C97.9232 58.9172 100.009 58.5316 100.548 58.8643H100.601C100.897 58.9551 101.246 58.8189 101.489 58.1535C101.595 57.7375 101.701 57.2384 101.807 56.7545C101.754 56.4671 101.701 56.1797 101.656 55.8999C101.769 55.8999 101.891 55.968 101.929 55.6579C102.107 54.7286 102.107 53.7741 101.929 52.8448C101.853 52.3306 101.929 51.529 101.823 51.0072L102.02 51.0677C102.02 50.5686 101.785 51.3172 101.823 50.5081C101.906 50.6971 101.982 50.3946 102.058 50.4173C102.058 49.7518 101.785 50.1678 101.792 49.5098C101.83 49.3586 102.02 50.4097 102.027 49.5855C102.027 49.4191 101.944 49.3964 101.906 49.3813C102.062 49.0855 102.154 48.7604 102.176 48.427C102.199 48.0935 102.15 47.7591 102.035 47.4454C102.111 47.4454 102.225 47.8159 102.3 47.7025C102.263 47.7025 102.187 47.5059 102.149 47.4907L102.293 47.5361C102.293 47.4227 102.293 47.3092 102.293 47.1958C102.293 47.0824 102.217 47.0068 102.187 46.9992H102.278C102.247 46.727 102.217 46.4749 102.187 46.243C102.12 45.7959 102.024 45.3538 101.898 44.9196C101.475 44.5357 100.947 44.2856 100.381 44.2012Z" fill="#4EF20D"/>
<path d="M89.0017 44.3599C89.0221 44.6115 89.0221 44.8644 89.0017 45.1161C88.8879 45.4034 88.7741 44.3599 88.6528 44.6775V45.169C88.5541 44.9573 88.4479 44.685 88.3493 44.4582C88.143 44.539 87.9547 44.6598 87.7955 44.8136C87.8083 44.9519 87.8083 45.0912 87.7955 45.2295C87.7197 45.3656 87.6134 45.1917 87.4996 45.1388L87.4541 45.2295C87.4466 45.358 87.4466 45.4867 87.4541 45.6152C87.3997 45.5861 87.353 45.5446 87.3176 45.4942C86.7865 46.4773 86.2555 47.6267 85.679 48.7611C85.5953 49.1477 85.4733 49.5252 85.3148 49.8878C85.1403 50.0769 84.9052 49.7593 84.7307 49.7064C84.7838 51.4457 84.3665 52.3078 84.4727 54.0698C84.359 54.0698 84.1769 53.979 84.1769 54.4705C84.2287 55.842 84.1037 57.2144 83.8052 58.5541C83.6914 58.7659 83.4941 58.1458 83.4562 58.4407C83.3955 58.9171 83.6231 59.4843 83.5624 59.9532C84.4803 60.475 85.3376 59.8246 86.2479 59.8246C86.5438 59.0684 88.63 58.6751 89.1762 59.0154H89.2217C89.5176 59.1062 89.8666 58.9701 90.1093 58.2592C90.2155 57.8509 90.3217 57.3518 90.4355 56.8678C90.3748 56.5804 90.3217 56.293 90.2762 56.0132C90.39 56.0132 90.5114 56.0813 90.5493 55.7637C90.7249 54.8367 90.7249 53.8851 90.5493 52.9581C90.4735 52.4439 90.5493 51.6423 90.4355 51.1129L90.6328 51.1734C90.6328 50.6819 90.3976 51.4305 90.4355 50.6214C90.519 50.8104 90.5948 50.5079 90.6783 50.5306C90.6783 49.8652 90.3976 50.2811 90.4052 49.6232C90.4431 49.4719 90.6328 50.5155 90.6404 49.6988C90.6404 49.5324 90.5645 49.5097 90.519 49.4946C90.6742 49.1985 90.7658 48.8735 90.788 48.5402C90.8102 48.2069 90.7625 47.8726 90.6479 47.5587C90.7238 47.5587 90.8376 47.9292 90.9135 47.8158C90.9135 47.8158 90.8072 47.6192 90.7693 47.6116L90.9059 47.657C90.9059 47.536 90.9059 47.4226 90.9059 47.3091C90.9059 47.1957 90.8376 47.1276 90.7997 47.1201H90.8907C90.8907 46.8554 90.8376 46.5983 90.7997 46.3639C90.7342 45.9166 90.6379 45.4745 90.5114 45.0405C90.0856 44.6716 89.5608 44.435 89.0017 44.3599Z" fill="#4EF20D"/>
<path d="M77.6224 44.5188C77.6419 44.7705 77.6419 45.0233 77.6224 45.275C77.501 45.5624 77.3873 44.5188 77.2659 44.8288V45.328C77.1673 45.1162 77.061 44.844 76.9624 44.6095C76.7573 44.696 76.5696 44.819 76.4086 44.9725C76.4214 45.1109 76.4214 45.2501 76.4086 45.3885C76.3328 45.517 76.2266 45.3506 76.1128 45.2977L76.0672 45.3809C76.0672 45.4943 76.0672 45.6607 76.0672 45.7666C76.013 45.7406 75.9661 45.7016 75.9307 45.6531C75.4072 46.6362 74.8686 47.7857 74.2921 48.92C74.2084 49.3067 74.0864 49.6841 73.9279 50.0468C73.7534 50.2358 73.5183 49.9182 73.3438 49.8653C73.3969 51.6046 72.9796 52.4667 73.0859 54.2287C72.9721 54.2287 72.7976 54.1379 72.79 54.6295C72.8414 56.0009 72.7164 57.3733 72.4183 58.7131C72.3045 58.9248 72.1072 58.3047 72.0693 58.5996C72.0086 59.0761 72.2438 59.6432 72.1831 60.1121C73.0934 60.6339 73.9507 59.976 74.861 59.9835C75.1645 59.2273 77.2431 58.8341 77.7893 59.1668H77.8348C78.1307 59.2651 78.4873 59.1214 78.7224 58.456C78.8286 58.0476 78.9348 57.5409 79.0486 57.0645C78.9879 56.7772 78.9348 56.4898 78.8893 56.2024C79.0031 56.2024 79.1245 56.2781 79.1624 55.9604C79.3414 55.0338 79.3414 54.0815 79.1624 53.1549C79.0866 52.6406 79.1624 51.839 79.0486 51.3097L79.2459 51.3702C79.2459 50.8786 79.0107 51.6273 79.0562 50.8181C79.1321 51.0072 79.2079 50.7047 79.2914 50.7274C79.2914 50.0543 79.0183 50.4778 79.0183 49.8199C79.0562 49.6687 79.2535 50.7123 79.2535 49.8955C79.2535 49.7292 79.1776 49.7065 79.1397 49.6914C79.2915 49.394 79.3805 49.0689 79.4014 48.7359C79.4223 48.403 79.3745 48.0693 79.2611 47.7554C79.3369 47.7554 79.4507 48.126 79.5342 48.0125C79.5342 48.0125 79.428 47.8159 79.39 47.8084H79.5266C79.5266 47.6949 79.5266 47.5815 79.5266 47.4681C79.5266 47.3546 79.4583 47.2866 79.4204 47.279H79.5114C79.5114 47.0143 79.4583 46.7572 79.4204 46.5228C79.3549 46.0756 79.2586 45.6334 79.1321 45.1994C78.7083 44.8275 78.1825 44.5904 77.6224 44.5188Z" fill="#4EF20D"/>
<path d="M66.2431 44.6775C66.2669 44.929 66.2669 45.1822 66.2431 45.4337C66.1217 45.7286 66.0079 44.6775 65.8865 44.9951V45.4866C65.7879 45.2825 65.6893 45.0102 65.5831 44.7758C65.3779 44.8623 65.1902 44.9853 65.0293 45.1388C65.0462 45.2769 65.0462 45.4166 65.0293 45.5547C64.9534 45.6833 64.8472 45.5093 64.7334 45.464L64.6879 45.5471C64.6879 45.653 64.6879 45.8269 64.6879 45.9328C64.6337 45.9068 64.5867 45.8679 64.5513 45.8194C64.0279 46.8025 63.4893 47.9519 62.9127 49.0863C62.8262 49.4713 62.7069 49.8482 62.5562 50.213C62.3741 50.4021 62.1389 50.0845 61.9644 50.0315C62.0175 51.7709 61.6003 52.6329 61.7141 54.3949C61.5927 54.3949 61.4182 54.3042 61.4182 54.7957C61.4658 56.1671 61.341 57.5389 61.0465 58.8793C60.9251 59.0835 60.7279 58.4634 60.6899 58.7659C60.6293 59.2423 60.8644 59.8095 60.8037 60.2783C61.7141 60.8001 62.5713 60.1422 63.4817 60.1422C63.7851 59.386 65.8713 59.0003 66.41 59.3331H66.4555C66.7513 59.4238 67.1079 59.2877 67.3431 58.6222C67.4493 58.2139 67.5631 57.7072 67.6693 57.2232C67.6086 56.9434 67.5555 56.656 67.51 56.3687C67.6313 56.3687 67.7451 56.4443 67.7831 56.1267C67.9621 55.2 67.9621 54.2478 67.7831 53.3211C67.7072 52.7993 67.7831 52.0053 67.6693 51.4759L67.8665 51.5364C67.8665 51.0449 67.6313 51.7935 67.6769 50.9844C67.7527 51.1734 67.8362 50.8709 67.912 50.8936C67.912 50.2206 67.6389 50.6441 67.6389 49.9862C67.6769 49.8349 67.8741 50.8785 67.8741 50.0542C67.8741 49.8954 67.7982 49.8652 67.7603 49.8576C67.9121 49.5603 68.0012 49.2351 68.022 48.9022C68.0429 48.5692 67.9952 48.2355 67.8817 47.9217C67.9576 47.9217 68.0713 48.2922 68.1548 48.1788C68.1093 48.1788 68.041 47.9822 68.0031 47.9746H68.1396C68.1396 47.8612 68.1396 47.7478 68.1396 47.6343C68.1396 47.5209 68.0713 47.4528 68.0334 47.4377H68.1245C68.1245 47.173 68.0713 46.9159 68.041 46.6815C67.9423 46.2394 67.8207 45.8028 67.6769 45.3732C67.276 45.0087 66.7782 44.7672 66.2431 44.6775Z" fill="#4EF20D"/>
<path d="M54.8637 44.8364C54.8875 45.0879 54.8875 45.3411 54.8637 45.5926C54.7423 45.8876 54.6285 44.8364 54.5147 45.154C54.5147 45.3204 54.5147 45.4868 54.5147 45.6456C54.4161 45.4414 54.3175 45.1616 54.2113 44.9347C54.0061 45.0212 53.8184 45.1442 53.6575 45.2977C53.6746 45.4333 53.6746 45.5705 53.6575 45.7061C53.5892 45.8422 53.4754 45.7061 53.3692 45.6229L53.3161 45.7061C53.3161 45.812 53.3161 45.9859 53.3161 46.0918C53.2594 46.0697 53.2115 46.0299 53.1795 45.9783C52.6485 46.9614 52.1099 48.1109 51.5333 49.2452C51.4482 49.6281 51.3288 50.0027 51.1768 50.3644C50.9947 50.561 50.7671 50.2434 50.585 50.1829C50.6381 51.9298 50.2209 52.7919 50.3347 54.5539C50.2133 54.5539 50.0388 54.4556 50.0388 54.9547C50.0864 56.3235 49.9616 57.6929 49.6671 59.0307C49.5457 59.2425 49.3485 58.6224 49.3105 58.9248C49.2499 59.4013 49.485 59.9684 49.4243 60.4373C50.3347 60.9591 51.1995 60.3087 52.1099 60.3087C52.4057 59.5525 54.4919 59.1668 55.0306 59.4996H55.0761C55.3719 59.5903 55.7285 59.4542 55.9637 58.7887C56.0699 58.3728 56.1837 57.8737 56.2899 57.3897C56.2292 57.1023 56.1761 56.815 56.1306 56.5352C56.2519 56.5352 56.3657 56.6108 56.4113 56.2932C56.5857 55.3661 56.5857 54.4147 56.4113 53.4876C56.3354 52.9658 56.4113 52.1718 56.3051 51.6424L56.4947 51.7029C56.4947 51.2114 56.2595 51.96 56.3051 51.1509C56.3809 51.3324 56.4644 51.0299 56.5402 51.0601C56.5402 50.3871 56.2671 50.8106 56.2671 50.1527C56.3126 49.9939 56.5023 51.045 56.5023 50.2207C56.5023 50.0544 56.4264 50.0317 56.3885 50.0241C56.5402 49.7269 56.6299 49.4021 56.6521 49.0693C56.6742 48.7366 56.6284 48.4028 56.5175 48.0882C56.5933 48.0882 56.6995 48.4587 56.783 48.3453C56.7375 48.3453 56.6692 48.1487 56.6313 48.1411H56.7678C56.7678 48.0277 56.7678 47.9142 56.7678 47.8008C56.7678 47.6874 56.6995 47.6193 56.6616 47.6042H56.7526C56.7526 47.3395 56.6995 47.0748 56.6692 46.848C56.5989 46.4016 56.5027 45.9598 56.3809 45.5246C55.9547 45.1505 55.4266 44.911 54.8637 44.8364Z" fill="#4EF20D"/>
<path d="M43.4919 44.9951C43.5126 45.2468 43.5126 45.4997 43.4919 45.7513C43.3705 46.0463 43.2567 44.9951 43.1429 45.3127C43.1429 45.4791 43.1429 45.6379 43.1429 45.8043C43.0443 45.6001 42.9457 45.3203 42.8395 45.0934C42.6337 45.1789 42.4459 45.302 42.2857 45.4564C42.2976 45.5923 42.2976 45.7289 42.2857 45.8648C42.2098 46.0009 42.096 45.8648 41.9898 45.774L41.9367 45.8648C41.9367 45.9706 41.9367 46.1446 41.9367 46.2504C41.8801 46.2284 41.8321 46.1886 41.8002 46.137C41.2691 47.1125 40.7381 48.262 40.1539 49.4039C40.0724 49.7878 39.9529 50.1626 39.7974 50.5231C39.6229 50.7197 39.3877 50.3945 39.2057 50.3416C39.2588 52.0885 38.8415 52.943 38.9553 54.705C38.8339 54.705 38.6595 54.6143 38.6595 55.1134C38.7071 56.4822 38.5822 57.8516 38.2877 59.1894C38.1664 59.4011 37.9691 58.781 37.9312 59.0835C37.8705 59.5599 38.1057 60.1195 38.045 60.596C38.9553 61.1178 39.8202 60.4674 40.7305 60.4674C41.0264 59.7112 43.1126 59.3255 43.6512 59.6583H43.7043C43.9926 59.749 44.3491 59.6129 44.5843 58.9474C44.6981 58.5315 44.8043 58.0324 44.9105 57.5484L44.7588 56.6636C44.8802 56.6636 44.994 56.7317 45.0395 56.4216C45.214 55.4945 45.214 54.5432 45.0395 53.616C44.9636 53.0943 45.0395 52.3002 44.9333 51.7709L45.1305 51.8314C45.1305 51.3323 44.8878 52.0809 44.9333 51.2718C45.0091 51.4608 45.0926 51.1583 45.1684 51.181C45.1305 50.5155 44.8953 50.9315 44.8953 50.2735C44.9409 50.1223 45.1305 51.1734 45.1305 50.3492C45.1305 50.1828 45.0547 50.1601 45.0167 50.145C45.1687 49.8492 45.2585 49.5256 45.2807 49.1941C45.3028 48.8625 45.2569 48.5299 45.1457 48.2166C45.2216 48.2166 45.3353 48.5872 45.4112 48.4737C45.3733 48.4737 45.2974 48.2771 45.2595 48.262L45.396 48.3074V47.9671C45.396 47.8612 45.3202 47.7856 45.2822 47.7704H45.3809C45.3505 47.4982 45.3202 47.2461 45.2898 47.0142C45.2235 46.5672 45.1272 46.1251 45.0016 45.6908C44.5801 45.3126 44.0539 45.0701 43.4919 44.9951Z" fill="#4EF20D"/>
<path d="M32.1125 45.1465C32.1329 45.3981 32.1329 45.651 32.1125 45.9027C31.9911 46.1901 31.8849 45.1465 31.7636 45.4641V45.9556C31.6649 45.7439 31.5587 45.4717 31.4525 45.2448C31.2453 45.3275 31.057 45.4509 30.8987 45.6078C30.9106 45.7436 30.9106 45.8803 30.8987 46.0161C30.8229 46.1523 30.7091 45.9783 30.6029 45.9254L30.5573 46.0161C30.5498 46.1446 30.5498 46.2734 30.5573 46.4018C30.5007 46.3797 30.4528 46.3399 30.4208 46.2884C29.8898 47.2639 29.3587 48.4134 28.7746 49.5553C28.684 49.937 28.557 50.3092 28.3953 50.6669C28.2208 50.856 27.9856 50.5383 27.8111 50.4854C27.8566 52.2323 27.4394 53.0868 27.5532 54.8488C27.4318 54.811 27.2573 54.7581 27.2573 55.2496C27.3053 56.6209 27.1804 57.9929 26.8856 59.3332C26.7642 59.5449 26.5746 58.9248 26.5366 59.2273C26.4684 59.6962 26.7035 60.2634 26.6428 60.7398C27.5532 61.2616 28.418 60.6112 29.3284 60.6112C29.6242 59.855 31.7105 59.4618 32.2491 59.8021H32.3022C32.5905 59.8928 32.947 59.7567 33.1898 59.0458C33.296 58.6375 33.4022 58.1384 33.5084 57.6544C33.4553 57.367 33.4022 57.0797 33.3567 56.7999C33.4705 56.7999 33.5918 56.8679 33.6298 56.5503C33.8043 55.6232 33.8043 54.6718 33.6298 53.7447C33.5539 53.2305 33.6298 52.4289 33.5236 51.8995L33.7208 51.9676C33.7208 51.4685 33.4856 52.2172 33.5236 51.408C33.5994 51.5971 33.6829 51.2946 33.7587 51.3173C33.7208 50.6518 33.4856 51.0677 33.4932 50.4098C33.4932 50.2585 33.7208 51.3097 33.7284 50.4854C33.7284 50.319 33.6449 50.2964 33.607 50.2812C33.747 49.9893 33.8278 49.6727 33.8447 49.3495C33.8616 49.0264 33.8144 48.7031 33.7056 48.3982C33.7815 48.3982 33.8953 48.7688 33.9712 48.6553C33.9332 48.6553 33.8574 48.4587 33.8194 48.4436L33.956 48.489V48.1411C33.956 48.0428 33.8801 47.9596 33.8498 47.9521H33.9408C33.9105 47.6798 33.8801 47.4278 33.8498 47.1958C33.7843 46.7486 33.688 46.3065 33.5615 45.8725C33.1579 45.4976 32.6551 45.2457 32.1125 45.1465Z" fill="#4EF20D"/>
<path d="M20.7332 45.3052C20.7535 45.5568 20.7535 45.8097 20.7332 46.0614C20.6194 46.3488 20.5056 45.3052 20.3842 45.6228V46.1295C20.2856 45.9177 20.1794 45.6455 20.0732 45.411C19.8714 45.4996 19.6866 45.6224 19.527 45.774C19.5397 45.9124 19.5397 46.0516 19.527 46.19C19.4511 46.3261 19.3449 46.1521 19.2311 46.0992L19.1856 46.19C19.178 46.3184 19.178 46.4472 19.1856 46.5756C19.1325 46.5756 19.0945 46.5076 19.049 46.4546C18.518 47.4377 17.987 48.5872 17.4028 49.7215C17.3246 50.1087 17.205 50.4864 17.0463 50.8483C16.8718 51.0373 16.6366 50.7197 16.4621 50.6668C16.5076 52.4061 16.098 53.2682 16.2042 55.0302C16.0904 55.0302 15.9083 54.9394 15.9083 55.431C15.9563 56.8023 15.8314 58.1742 15.5366 59.5146C15.4228 59.7263 15.2256 59.1062 15.1876 59.4011C15.1269 59.8776 15.3545 60.4447 15.2938 60.9136C16.2042 61.4354 17.069 60.785 17.9794 60.785C18.2752 60.0288 20.3615 59.6356 20.9001 59.9759H20.9532C21.249 60.0666 21.598 59.9305 21.8408 59.2197C21.947 58.8113 22.0532 58.3122 22.1594 57.8282C22.1063 57.5408 22.0532 57.2535 22.0077 56.9737C22.1215 56.9737 22.2428 57.0417 22.2808 56.7241C22.459 55.7974 22.459 54.8453 22.2808 53.9185C22.2049 53.4043 22.2808 52.6027 22.1746 52.0734L22.3718 52.1339C22.3718 51.6423 22.1366 52.391 22.1746 51.5818C22.258 51.7709 22.3339 51.4684 22.4097 51.4911C22.4097 50.8256 22.1366 51.2415 22.1442 50.5836C22.1821 50.4324 22.3718 51.4759 22.3794 50.6592C22.3794 50.4929 22.2959 50.4702 22.258 50.455C22.4132 50.159 22.5048 49.8339 22.527 49.5006C22.5492 49.1673 22.5015 48.833 22.387 48.5191C22.4628 48.5191 22.5766 48.8897 22.6525 48.7762C22.6146 48.7762 22.5387 48.5796 22.5008 48.5721L22.6449 48.6174C22.6449 48.4964 22.6449 48.383 22.6449 48.2696C22.6449 48.1561 22.569 48.0881 22.5387 48.0805H22.6297C22.6297 47.8158 22.569 47.5587 22.5387 47.3243C22.4732 46.8771 22.3769 46.4349 22.2504 46.0009C21.8244 45.6252 21.2966 45.3832 20.7332 45.3052Z" fill="#4EF20D"/>
<path d="M10.689 45.449C10.689 45.7515 10.689 46.054 10.689 46.2052C10.689 46.4926 10.6207 45.449 10.598 45.759V46.2581C10.598 46.0464 10.5449 45.7742 10.5145 45.5397C10.4472 45.6495 10.3985 45.7696 10.3704 45.8951C10.3704 46.0766 10.3704 46.243 10.3704 46.3111C10.3704 46.3791 10.3173 46.2657 10.2869 46.2128V46.3035C10.2869 46.4094 10.2869 46.5833 10.2869 46.6892C10.265 46.6551 10.2519 46.6161 10.249 46.5757C10.12 47.5437 9.99107 48.6932 9.85451 49.8199C9.85451 50.2737 9.80141 50.735 9.77107 50.9391C9.74072 51.1433 9.65727 50.8106 9.61175 50.7501C9.61175 52.497 9.54348 53.3515 9.61175 55.1135C9.61175 55.0757 9.53589 55.0227 9.54348 55.5143C9.54348 56.9889 9.54348 58.698 9.49038 59.5903C9.49038 59.8021 9.39934 59.1744 9.39175 59.4769C9.39175 59.9533 9.45244 60.5205 9.43727 60.9893C9.68003 61.5187 9.90003 60.8759 10.1352 60.8835C10.2111 60.1272 10.7497 59.7642 10.8938 60.1272C10.9697 60.218 11.0607 60.1272 11.1138 59.424C11.1138 59.0156 11.1669 58.5165 11.1897 58.0325C11.1897 57.7451 11.1518 57.4578 11.1366 57.1704C11.1366 57.1704 11.1973 57.246 11.2049 56.936C11.2525 56.0014 11.2525 55.065 11.2049 54.1304C11.2049 53.6086 11.2049 52.807 11.1518 52.2777L11.2049 52.3457C11.2049 51.8466 11.1442 52.5953 11.1518 51.7861C11.1518 51.9752 11.1897 51.6727 11.2125 51.7029C11.2125 51.0299 11.1366 51.4458 11.129 50.7879C11.129 50.6367 11.1973 51.6878 11.1897 50.8635C11.1897 50.6972 11.1897 50.6745 11.1897 50.6593C11.2612 50.0185 11.2612 49.3718 11.1897 48.731C11.1897 48.731 11.2428 49.1015 11.258 48.9881C11.258 48.9881 11.258 48.7915 11.258 48.7839C11.258 48.6705 11.258 48.557 11.258 48.4436C11.2689 48.3785 11.2689 48.3121 11.258 48.247C11.258 47.9823 11.258 47.7252 11.258 47.4908C11.258 46.9539 11.1897 46.1825 11.1745 46.1598C10.9469 45.7742 10.818 45.5019 10.689 45.449Z" fill="#4EF20D"/>
</g>
<defs>
<clipPath id="clip0">
<rect width="170" height="110" fill="white"/>
</clipPath>
</defs>
</svg>
