<svg width="188" height="112" viewBox="0 0 188 112" fill="none" xmlns="http://www.w3.org/2000/svg">
<g clip-path="url(#clip0)">
<path d="M104.391 13.601C104.441 13.3204 103.093 13.0328 105.184 12.8996C111.773 12.626 117.063 13.601 123.652 13.3064L124.129 12.8505L139.965 13.5519C149.952 13.4911 159.892 13.3812 169.785 13.2222C169.526 13.0539 169.406 12.8996 170.389 12.8435C171.146 12.8435 171.96 12.8084 172.823 12.8014H174.409C174.648 12.8014 174.886 12.8435 175.111 12.8715L175.062 13.4257C175.062 13.5168 175.111 13.608 175.139 13.7133V13.8185L175.181 14.0079C175.205 14.0988 175.235 14.1879 175.272 14.2744C175.32 14.3716 175.381 14.4614 175.454 14.541C175.454 17.2065 175.398 19.5844 175.349 21.7799C175.412 23.8281 175.483 25.8763 175.553 27.9807C175.616 28.3875 175.686 28.8715 175.756 29.4467L174.844 29.594L174.318 29.6712H174.248H174.058H173.483H172.325L163.035 29.9868L144.091 30.6321L104.588 31.9649C97.838 32.3858 91.0882 32.8066 84.5839 33.003C74.9502 33.1784 62.6573 32.8768 53.2692 32.8277C54.6725 34.441 31.8128 35.2336 36.3805 36.868C30.1218 36.868 20.7197 36.7838 20.2426 37.2398C19.7655 37.6957 18.6498 38.313 16.6572 38.8391C16.159 38.9723 15.5977 39.1056 14.9732 39.2319C14.5098 39.3252 14.0412 39.3908 13.5699 39.4283L11.7877 39.6107C9.24774 39.8562 6.07629 40.0947 2.11898 40.3121C1.98567 38.1306 1.85937 35.6124 1.74009 32.7225L1.56468 28.121L1.41032 25.1328C1.21385 18.6234 1.79622 8.63478 1.51556 6.34105C1.12966 2.80576 0.603419 14.8356 0.168396 11.2231C0.135652 15.2494 0.10057 19.2594 0.0631485 23.2529C0.0210495 29.7296 0 36.1619 0 42.5497H37.1874L66.9304 42.4515C86.78 42.3744 106.707 42.2691 126.999 42.2762C130.324 42.1359 137.523 42.0026 147.066 41.8974L163.028 41.7431L172.023 41.6799L187.972 41.6238C187.937 28.2332 187.895 14.1061 187.853 0.0490715L138.036 0.105187C125.041 0.105187 114.25 0.056086 107.731 -0.0140587H105.121C89.4603 -0.105247 70.4316 -0.0140588 57.1704 0.631272C51.0941 1.01707 44.9126 1.48002 38.7521 1.92193C41.6148 2.18848 44.2671 2.45503 46.5615 2.72158C40.2957 2.72158 34.03 2.65144 31.6233 2.93903C18.292 3.64048 25.8418 4.44013 30.9778 5.5414C34.6685 6.0254 29.6728 6.76893 35.4544 7.25994L25.0138 7.19681C24.5577 7.71588 37.8891 7.01444 35.0053 7.75797C30.9919 7.58261 26.4873 7.86319 22.3195 7.83513C23.7649 8.45942 36.7735 8.07362 36.1279 8.68388C33.8756 8.82417 24.4034 7.84916 23.5965 8.61374C23.4421 8.76805 27.6169 8.7891 29.7008 8.80313C16.8536 9.0346 9.77398 9.76411 21.4985 10.5918C17.429 10.5918 11.6754 10.2481 7.36732 10.3533C9.52139 10.3533 13.2261 10.5357 15.2118 10.5427L7.90759 10.5217C8.2935 10.6339 8.72852 10.7391 9.18459 10.8443C11.0089 10.9355 12.8472 11.0127 14.7487 11.0267H9.87923C11.0931 11.2722 12.4964 11.5107 14.026 11.7282C19.8146 12.2262 25.3506 12.9417 28.487 12.9627C53.7604 13.3275 79.1391 13.5519 104.391 13.601Z" fill="#FF0048"/>
<path d="M84.5207 70.2639C84.4716 70.5445 85.8188 70.8321 83.7279 70.9654C77.1394 71.2389 71.8419 70.2639 65.2534 70.5515L64.7763 71.0145L48.9471 70.313C38.9556 70.3785 29.0156 70.4884 19.127 70.6427C19.3796 70.811 19.5059 70.9583 18.5165 71.0215C17.7588 71.0215 16.9449 71.0215 16.0888 71.0636H12.2648L0.919172 70.9934C0.919172 73.7992 0.884089 76.6611 0.870056 79.5721L0.947238 84.4822V84.7137V84.826L0.989337 85.0153C1.01195 85.1076 1.0449 85.197 1.08757 85.2819C1.13066 85.38 1.18996 85.4701 1.26298 85.5484C1.26298 88.2139 1.20685 90.5918 1.15773 92.7874C1.22088 95.053 1.29105 97.3187 1.36121 99.6475C1.42436 103.604 1.49452 107.679 1.56469 111.965L9.82311 111.811L13.8927 111.733L15.3591 111.691L16.5098 111.656L25.8067 111.341L44.7512 110.695L84.2611 109.363C91.011 108.942 97.7608 108.521 104.258 108.324C113.892 108.149 126.185 108.451 135.58 108.507C134.141 106.886 157.036 106.094 152.461 104.459C158.72 104.495 168.122 104.551 168.599 104.088C169.077 103.625 170.192 103.014 172.192 102.488C172.69 102.355 173.244 102.222 173.869 102.096C174.082 102.071 174.289 102.006 174.479 101.906L174.879 101.717C175.412 101.471 175.904 101.233 176.318 101.015L175.974 99.6054L175.798 98.9812C175.798 98.9812 175.798 98.9812 175.798 98.9391V98.7637V98.42L175.763 97.7185L175.686 96.2595C175.49 89.7501 176.072 79.7615 175.791 77.4678C175.349 73.8553 174.823 85.8851 174.388 82.2867C174.36 86.313 174.327 90.323 174.29 94.3165V97.3117V98.9531C174.285 98.9324 174.285 98.9107 174.29 98.89H151.837L122.087 98.9882C102.244 99.0723 82.3176 99.1705 62.0188 99.1635C58.693 99.3108 51.4941 99.4371 41.9587 99.5423L25.9891 99.6966L16.8396 99.7247H14.6364H14.3698H13.8155L13.7734 98.918V91.9667C13.7734 89.5607 13.7734 87.1337 13.7734 84.7067V83.7387H14.5242H18.8533H30.0376H50.8415C63.8361 83.7387 74.6345 83.7878 81.1528 83.858H83.7559C99.4238 83.9491 118.445 83.858 131.707 83.2126C137.79 82.8268 143.972 82.3639 150.125 81.922C147.262 81.6554 144.617 81.3889 142.316 81.1223C148.581 81.1223 154.847 81.1925 157.254 80.9049C170.585 80.2034 163.035 79.3968 157.906 78.2955C154.216 77.8185 159.204 77.075 153.423 76.584L163.863 76.6471C164.34 76.1841 151.002 76.8786 153.907 76.128C157.92 76.3034 162.418 76.0228 166.593 76.0509C165.147 75.4266 152.139 75.8124 152.777 75.2021C155.03 75.0618 164.502 76.0368 165.309 75.2722C165.47 75.1179 161.295 75.0969 159.204 75.0829C172.059 74.8514 179.138 74.1219 167.407 73.2942C171.476 73.2942 177.23 73.6379 181.545 73.5327H181.51C179.363 73.5327 175.651 73.3503 173.672 73.3433L181.005 73.3854C180.619 73.2731 180.184 73.1679 179.721 73.0627C177.896 72.9715 176.065 72.8943 174.156 72.8803H179.026C177.812 72.6348 176.416 72.3963 174.879 72.1789C169.098 71.6808 163.555 70.9654 160.425 70.9443C135.152 70.5655 109.766 70.313 84.5207 70.2639Z" fill="#FF0048"/>
</g>
<defs>
<clipPath id="clip0">
<rect width="188" height="112" fill="white"/>
</clipPath>
</defs>
</svg>
