<svg width="222" height="137" viewBox="0 0 222 137" fill="none" xmlns="http://www.w3.org/2000/svg">
<g clip-path="url(#clip0)">
<path d="M103.011 33.4293C103.047 33.1355 101.614 32.8846 103.811 32.7126C104.675 32.6552 105.525 32.6122 106.354 32.5836C107.169 32.5369 107.987 32.5369 108.803 32.5836C110.409 32.6696 111.965 32.7914 113.521 32.9061C115.077 33.0208 116.626 33.3147 118.218 33.4795L119.421 33.6014L120.646 33.7662C121.467 33.8737 122.302 33.9669 123.167 34.0386L123.729 33.6372C124.391 33.759 125.061 33.8379 125.724 33.9956L127.727 34.44C129.067 34.7553 130.428 35.0062 131.775 35.3789C134.469 36.0957 137.214 36.8124 139.93 37.78C145.029 39.1948 150.052 40.8694 154.978 42.7973L158.645 44.3455C159.869 44.8615 161.108 45.3489 162.304 45.9295C164.71 47.0691 167.152 48.0798 169.508 49.3699C169.342 49.0904 169.291 48.8897 170.264 49.3269C171.236 49.7641 172.346 50.3734 173.498 50.9826C174.651 51.5918 175.839 52.3229 177.1 53.0468C178.361 53.7708 179.665 54.5233 180.976 55.3619L184.988 57.8921C185.809 58.3723 186.638 58.831 187.423 59.3256C187.742 59.528 188.119 59.6212 188.496 59.5908C190.909 61.2178 193.078 62.6227 194.979 64.0705L197.472 65.6975L198.091 66.1061L198.25 66.2064L198.322 66.2566L198.387 66.2924L198.66 66.4286C198.999 66.6006 199.381 66.8085 199.791 67.0378L200.108 67.217L200.274 67.3102L200.353 67.3604L200.303 67.4106L199.892 67.8048C199.59 68.0771 199.251 68.3925 198.869 68.7222L198.704 68.8584L198.596 68.9444L198.286 69.1594L197.04 70.0267L194.554 71.7684C192.898 72.951 191.205 74.062 189.512 75.1873C186.141 77.4881 182.676 79.6383 179.196 81.8388C172.116 86.1916 164.816 90.1819 157.326 93.7942C149.625 97.5152 141.625 100.591 133.41 102.99C131.645 103.506 129.888 104.072 128.109 104.553L122.763 105.843L117.418 106.853C115.632 107.14 113.817 107.291 112.073 107.498C106.337 107.934 100.572 107.826 94.8568 107.176C89.2061 106.551 83.6118 105.497 78.1229 104.022C78.4038 104.51 77.0711 104.581 74.9821 104.366C73.9448 104.223 72.7202 104.022 71.3803 103.786L69.3633 103.42C68.643 103.291 68.0018 103.112 67.3247 102.961L63.4276 102.073C62.2174 101.822 61.1656 101.521 60.33 101.356C58.666 101.048 57.9168 101.141 58.9541 102.008L56.3753 100.955C55.482 100.582 54.5888 100.145 53.6739 99.7361L50.9654 98.5176L49.7047 97.9442L48.4585 97.3421C45.2241 95.7724 42.6956 94.6256 42.3427 94.6686C41.2981 94.898 39.382 94.726 35.5785 93.4287C33.7128 92.7119 31.3788 91.7443 28.4686 90.3681C25.5583 88.992 22.1222 87.1284 18.0954 84.6341C14.933 82.706 11.18 79.9179 7.88073 77.5168C4.58149 75.1156 1.87294 72.951 0.720366 72.2988C-2.8238 70.2417 7.85191 78.7281 4.32216 76.6925C7.04511 78.7639 9.87612 80.7206 12.6639 82.706C14.047 83.7095 15.4949 84.6413 16.914 85.5731C18.3331 86.5048 19.7522 87.4939 21.1929 88.4401L25.5151 91.1924C26.2355 91.6439 26.9558 92.117 27.6762 92.5542L29.9165 93.8945L34.3683 96.5035L38.9066 98.9763C44.9988 102.272 51.2817 105.206 57.7223 107.764C64.2217 110.386 70.9144 112.507 77.7411 114.107C84.6441 115.711 91.6709 116.733 98.7467 117.16C105.86 117.505 112.991 117.225 120.055 116.322L122.699 115.963C123.577 115.849 124.464 115.734 125.335 115.548L130.565 114.559C134.015 113.749 137.488 112.974 140.859 111.921L143.416 111.204C144.266 110.96 145.087 110.652 145.93 110.38C147.601 109.806 149.287 109.255 150.973 108.66C154.265 107.391 157.586 106.165 160.798 104.725C161.872 104.194 163.392 103.564 165.171 102.653C166.95 101.743 169.119 100.725 171.517 99.4924C176.301 96.9766 182.215 93.8229 188.662 89.8951C191.932 87.9813 195.282 85.8096 198.805 83.5877C200.555 82.4624 202.313 81.2725 204.121 80.0827L205.475 79.1868C206.246 78.6779 207.11 78.1045 207.946 77.5239L212.988 74.0333L218.103 70.5069L220.682 68.7294L221.978 67.8334C222.079 67.8334 221.942 67.7546 221.914 67.7188L221.755 67.6041L221.431 67.3675L220.79 66.9017L210.445 59.2754L207.845 57.3402C207.413 57.0177 206.973 56.7238 206.534 56.4227L205.461 55.706L202.543 53.6848C200.613 52.3086 198.588 51.0328 196.579 49.7139C188.528 44.4404 180.167 39.6534 171.539 35.3789C163.339 31.3489 154.828 27.9766 146.089 25.2942C144.007 24.7136 141.983 24.1044 139.98 23.5812L134.087 22.2193L128.454 21.18C127.547 21.0009 126.646 20.8862 125.76 20.7715L123.181 20.4131C122.331 20.3056 121.496 20.1838 120.674 20.0978L118.268 19.9042C116.698 19.7895 115.207 19.6319 113.795 19.5745L109.804 19.4598L108.003 19.4097C107.427 19.4097 106.88 19.4097 106.347 19.4097L103.271 19.5172C93.5192 19.8681 83.8453 21.3817 74.4562 24.0256C65.8375 26.4506 57.4701 29.6858 49.467 33.6874C47.911 34.483 46.3839 35.3574 44.8423 36.2032L42.5011 37.4575L40.2392 38.8193L35.7514 41.5716L31.3356 44.4387L35.6145 42.5034C36.976 41.887 38.3087 41.3925 39.5189 40.8979C36.3277 42.4819 33.2589 44.2666 30.6513 45.7503C28.6805 46.8882 26.7691 48.125 24.9244 49.4559C23.3468 50.488 22.1294 51.3911 21.1713 52.1151C20.2133 52.839 19.5289 53.3981 19.0679 53.8066C18.1458 54.638 18.117 54.8961 18.6501 54.8172C19.7162 54.6667 22.9722 53.1042 25.7024 52.0936C29.4915 50.3877 25.1261 53.9069 30.889 51.0113L25.9329 53.9715C24.449 54.8817 22.9866 55.835 21.0201 57.075C20.9336 57.4334 23.9015 55.405 26.6317 53.6919C29.3618 51.9789 31.8831 50.5167 30.7017 51.6778C28.7495 52.7673 26.7181 53.9715 24.7371 55.2974C22.7561 56.6234 20.7607 57.9781 18.8158 59.2324C19.6586 59.0532 23.0659 56.9316 26.2283 54.9821C29.3906 53.0325 32.3945 51.3983 32.2505 51.8499C31.2275 52.5666 28.3317 54.0001 25.6664 55.5196C23.001 57.0392 20.6239 58.5515 20.4438 59.1034C20.3861 59.3256 24.2833 56.8528 26.2066 55.6128C23.2604 57.5982 20.6311 59.3328 18.6069 60.8594C16.5827 62.3861 15.0843 63.5688 14.2847 64.2927C12.7215 65.7262 14.0254 65.3463 19.601 62.0636C17.7424 63.3179 15.4445 64.7514 13.1538 66.2566C10.863 67.7618 8.59388 69.3673 6.67053 70.7936L13.8957 65.9412L7.29724 70.6001C7.70784 70.4424 8.16167 70.2489 8.6371 70.041C10.3299 68.9444 12.0156 67.8334 13.73 66.6221L9.36467 69.7185C10.6037 69.1451 12.0012 68.4498 13.5067 67.6543C16.2441 66.0272 19.0031 64.5722 21.4307 63.2319C23.8583 61.8916 25.9329 60.8379 27.3736 59.9205C33.2662 56.3367 39.2163 52.925 45.3466 49.886L47.6013 48.7392C48.3649 48.3521 49.1501 48.0224 49.9208 47.6497L54.5527 45.4994L59.2495 43.5284L60.4237 43.0338L61.6123 42.5894L63.9894 41.7078C70.2735 39.3247 76.7263 37.4081 83.295 35.9738C89.7867 34.5938 96.3806 33.7428 103.011 33.4293Z" fill="#0048FF"/>
<path d="M121.985 66.5577C122.281 66.5577 122.555 66.2137 122.706 66.6939C122.802 67.0614 122.817 67.4454 122.749 67.8192C122.677 68.1776 122.569 68.5359 122.475 68.8585C122.382 69.181 122.202 69.5251 122.115 69.8619C122.025 70.2126 121.963 70.5697 121.928 70.9299L122.353 71.1449L121.978 71.9764C121.834 72.2487 121.654 72.5139 121.503 72.7791C121.183 73.3123 120.829 73.8247 120.444 74.313C119.439 76.3621 118.007 78.175 116.244 79.6313C116.395 79.7388 116.511 79.8463 116.359 80.0327C116.271 80.1264 116.177 80.215 116.079 80.2978L115.726 80.52L114.933 80.9716C114.652 81.1293 114.328 81.2225 114.018 81.3586C113.719 81.496 113.411 81.6133 113.096 81.7099L112.542 81.9966C112.457 82.1205 112.424 82.2718 112.448 82.4194C111.883 82.5775 111.308 82.6973 110.726 82.7778C107.141 84.0013 103.245 83.9761 99.676 82.7061C95.5611 81.2296 92.134 78.3017 90.0448 74.4778C88.8648 72.8299 88.0653 70.9428 87.7036 68.9517C87.6604 68.5861 87.6244 68.2349 87.5956 67.8192C87.5705 67.4206 87.5705 67.0208 87.5956 66.6222C87.5956 66.2208 87.5956 65.8051 87.6892 65.3966L87.9197 64.1709C87.9629 63.9631 87.9918 63.7624 88.0422 63.5617L88.2223 62.9668L88.5752 61.8056C88.8778 61.0889 89.1443 60.3721 89.4469 59.7127C89.0147 59.641 88.8418 59.1823 88.7986 58.4942C88.7746 58.1091 88.7891 57.7226 88.8418 57.3403C88.9066 56.9317 88.9931 56.4945 89.0723 56.0573L89.202 55.3979L89.3532 54.7958C89.4439 54.4477 89.5065 54.093 89.5405 53.735C89.5837 53.1114 89.4397 52.7029 88.8562 52.7746C89.2092 52.323 89.6774 51.8786 90.1096 51.3912C90.5418 50.9038 91.0245 50.4666 91.4423 50.0652C92.2635 49.2195 92.9622 48.6317 92.883 48.3809C92.7606 47.9619 92.736 47.5206 92.8109 47.0907C92.8508 46.8086 92.9234 46.532 93.0271 46.2665C93.1612 45.9484 93.3252 45.6436 93.5169 45.3562C94.047 44.5203 94.717 43.7809 95.4979 43.1701C96.6809 42.2121 97.9988 41.4321 99.4094 40.855C100.072 40.6328 100.85 40.4321 101.657 40.2529C102.464 40.0737 103.307 40.0594 104.077 39.9877C105.204 39.9994 106.331 39.9324 107.449 39.787C107.751 39.6795 107.73 39.5577 107.535 39.4358C107.163 39.2904 106.777 39.1846 106.382 39.1204C105.439 38.9126 104.466 38.7262 105.259 38.4539C104.573 38.4698 103.89 38.532 103.213 38.6402C102.536 38.7334 101.844 38.7979 101.174 38.9484C99.8281 39.2187 98.5038 39.5876 97.2123 40.0522C95.9207 40.5085 94.6619 41.0521 93.4449 41.6792C92.847 42.0089 92.2707 42.396 91.68 42.7114C91.3918 42.8906 91.0965 43.0626 90.8156 43.2561L89.9871 43.8582C85.5627 47.063 82.141 51.4492 80.1182 56.5088L79.3979 58.4154C79.1602 59.0533 79.0377 59.7199 78.8648 60.3721C78.531 61.6845 78.2903 63.0185 78.1445 64.3645C77.9041 67.0449 78.0301 69.7453 78.519 72.3921L78.6847 73.3955L78.9368 74.3775C79.1169 75.0369 79.2826 75.6963 79.4843 76.3414C79.9177 77.6326 80.435 78.8943 81.0331 80.1187C81.6244 81.3581 82.3007 82.5555 83.0573 83.7024C83.4391 84.2687 83.8641 84.8062 84.2747 85.3581C84.4836 85.6305 84.6853 85.9029 84.9014 86.168L85.6218 86.935C85.9748 87.2503 86.4214 87.7019 87.0049 88.218C87.5884 88.734 88.3087 89.3218 89.1659 89.9668L90.5418 90.9201L91.2622 91.429L92.0762 91.9092C92.6381 92.2246 93.2144 92.5615 93.8267 92.884L95.786 93.7728C98.7954 95.0122 101.988 95.7554 105.237 95.9732C110.649 96.3414 116.056 95.1778 120.831 92.6169C125.606 90.0561 129.555 86.2025 132.222 81.502C133.655 78.9419 134.71 76.1901 135.355 73.331C135.471 72.7074 135.571 72.0982 135.665 71.5176C135.767 70.9727 135.837 70.4222 135.874 69.8691C135.932 68.8226 136.047 67.8909 136.018 67.1096L135.946 65.9628C135.791 62.3099 134.852 58.7323 133.194 55.4696C131.682 52.465 129.537 49.8199 126.906 47.7143C124.756 46.2128 122.39 45.0432 119.889 44.2452C120.35 44.6251 120.754 45.0623 121.135 45.4422C121.491 45.8032 121.823 46.1862 122.13 46.589C120.098 45.1555 117.807 44.0517 116.813 44.023C115.987 43.7556 115.115 43.6533 114.249 43.722C113.788 43.808 113.687 43.9944 113.788 44.238C113.983 44.5843 114.236 44.8947 114.537 45.1555C114.883 45.5425 115.257 45.9654 115.603 46.3883C116.122 46.8399 115.891 47.1051 115.754 47.3703C115.618 47.6354 115.574 47.9365 116.316 48.5887C115.816 48.312 115.296 48.0724 114.76 47.872C114.236 47.6498 113.697 47.4653 113.147 47.3201C113.082 47.4204 113.305 47.5208 113.658 47.6211C114.011 47.7215 114.472 47.915 114.919 48.0583C115.142 48.1372 115.358 48.2089 115.553 48.2877C115.712 48.3579 115.865 48.4444 116.006 48.5457C116.23 48.7034 116.266 48.8324 116.006 48.9113C114.912 48.1945 113.449 48.0082 112.174 47.6928C112.318 48.0798 113.413 48.3379 114.335 48.7966C115.257 49.2553 116.122 49.6925 115.898 49.9147C115.637 49.8134 115.394 49.6706 115.178 49.4918L114.105 48.8683C113.384 48.4167 112.578 48.2304 112.369 48.5601C112.289 48.6962 113.507 49.0116 114.083 49.2768C113.281 49.0284 112.451 48.8791 111.612 48.8324C111.1 48.7915 110.584 48.8475 110.092 48.9973C109.494 49.241 109.826 49.6639 111.31 50.3663C110.777 50.2158 110.121 50.0796 109.451 49.8861C108.802 49.7548 108.14 49.69 107.477 49.6925C107.773 49.6925 108.198 49.7929 108.572 49.8574C108.947 49.9219 109.358 49.9649 109.624 50.0366C108.961 49.9147 108.284 49.9291 107.614 49.8574C107.725 49.9721 107.84 50.0867 107.96 50.2014C108.435 50.3189 108.916 50.4122 109.401 50.481C108.976 50.4021 108.536 50.4093 108.104 50.3663C108.434 50.6471 108.78 50.908 109.141 51.1475C110.582 51.8643 111.656 52.8606 112.333 53.1329C115.075 54.2525 117.439 56.1273 119.147 58.5373C120.813 60.8809 121.786 63.6419 121.957 66.5075L121.985 66.5577Z" fill="#0048FF"/>
<path d="M147.673 28.1541C147.832 28.3978 148.567 28.2042 147.789 28.9712C145.267 31.2791 142.501 32.1894 139.98 34.4973C139.98 34.6694 140.045 34.8414 140.074 35.0206C137.862 36.4541 135.528 37.9592 133.18 39.5003C129.136 42.7256 125.141 45.9678 121.193 49.2266C121.402 49.2839 121.553 49.3628 121.193 49.7283C119.587 51.1618 117.159 52.8103 114.71 54.6452L113.694 55.534C113.625 55.6152 113.575 55.7108 113.547 55.8137C113.52 55.9166 113.516 56.0243 113.536 56.1289C112.434 56.9603 111.432 57.6771 110.503 58.3365C99.2149 68.2635 87.8477 78.4557 75.4647 89.4149C72.9723 91.8948 70.4726 94.382 67.937 96.5824C64.1119 99.7791 58.8965 103.435 55.021 106.373C56.6346 107.219 47.7742 115.125 50.6988 114.974C48.1199 116.931 44.2156 119.87 44.3308 120.393C44.6046 121.963 43.6105 124.765 37.3578 130.707C34.8149 132.922 30.3703 135.631 29.6067 136.584C28.4037 138.082 33.6623 134.685 32.4882 136.183C52.5717 121.246 71.2434 105.993 91.1613 90.5617C97.4861 84.7202 143.027 48.9901 154.942 40.1525L155.994 39.3139C162.477 34.4113 170.156 28.2759 175.191 23.5454C177.439 21.3163 179.672 18.9797 181.905 16.6645C180.565 17.3813 179.319 17.9834 178.209 18.4994C180.796 16.5427 183.374 14.586 184.174 13.5825C189.216 8.7946 185.615 10.5435 182.798 11.2817C180.99 12.063 182.56 9.84823 179.917 11.3247L184.239 8.05635C184.145 7.54029 179.124 12.3569 179.837 10.8015C181.588 9.66904 183.252 8.01334 184.974 6.70885C183.987 6.70885 178.915 11.1097 178.793 10.4145C179.621 9.58303 184.109 7.3611 183.958 6.49383C183.958 6.32181 182.207 7.6263 181.343 8.27854C186.45 3.97803 188.885 1.1827 183.569 4.23606C185.247 2.96024 187.805 1.36905 189.497 -0.0644531C188.604 0.594959 186.991 1.64858 186.169 2.26499L189.195 -0.0286155C188.972 0.00722209 188.727 0.0645622 188.475 0.121902C187.668 0.630796 186.868 1.14686 186.083 1.74176L187.934 0.286755C187.202 0.488342 186.481 0.727581 185.773 1.00351C183.093 2.43701 180.37 3.61965 179.081 4.58727C168.564 12.3425 157.996 20.191 147.673 28.1541Z" fill="#0048FF"/>
</g>
<defs>
<clipPath id="clip0">
<rect width="222" height="137" fill="white"/>
</clipPath>
</defs>
</svg>
